<?xml version="1.0" encoding="UTF-8"?>
<svg id="Capa_1" data-name="Capa 1" xmlns="http://www.w3.org/2000/svg" xmlns:xlink="http://www.w3.org/1999/xlink" viewBox="0 0 101.99 94.46">
  <defs>
    <style>
      .cls-1 {
        fill: none;
      }

      .cls-2 {
        fill: #100f0d;
        fill-rule: evenodd;
      }

      .cls-3 {
        clip-path: url(#clippath);
      }
    </style>
    <clipPath id="clippath">
      <rect class="cls-1" x="12.58" y="20.02" width="81.75" height="50.25"/>
    </clipPath>
  </defs>
  <g class="cls-3">
    <path class="cls-2" d="M74.78,35.02c2.08,0,3.96.84,5.33,2.21s2.21,3.25,2.21,5.33-.84,3.96-2.21,5.33c-1.36,1.36-3.25,2.21-5.33,2.21s-3.96-.84-5.33-2.21c-1.36-1.36-2.21-3.25-2.21-5.33s.84-3.96,2.21-5.33c1.36-1.36,3.25-2.21,5.33-2.21ZM74.78,52.44c-2.73,0-5.2-1.11-6.99-2.9s-2.9-4.26-2.9-6.99,1.11-5.2,2.9-6.99c1.79-1.79,4.26-2.9,6.99-2.9s5.2,1.11,6.99,2.9c1.79,1.79,2.9,4.26,2.9,6.99s-1.11,5.2-2.9,6.99c-1.79,1.79-4.26,2.9-6.99,2.9ZM23.99,56.56c.6.3,1.18.69,1.73,1.17.02.02.03.04.05.06.19.2.39.4.62.61.04.03.07.07.11.1.02.03.05.05.07.08.09.11.2.19.32.26,2.04,1.65,4.43,2.39,6.75,2.35,2.53-.04,4.97-1,6.78-2.7.13-.13.28-.27.43-.43.29-.3.59-.57.9-.82,1.57-1.28,3.35-1.95,5.1-1.96,1.72,0,3.42.64,4.85,1.99.13.13.27.26.39.39.03.06.07.12.11.17.33.4.66.76,1.01,1.09,1.84,1.75,4.06,2.64,6.35,2.67,2.27.03,4.59-.79,6.66-2.49.45-.37.89-.77,1.3-1.21h.01c.2-.2.39-.37.59-.54,1.57-1.28,3.35-1.95,5.1-1.96,1.72,0,3.42.64,4.85,1.99.11.1.22.21.33.33.51.65,1.08,1.22,1.67,1.7,1.78,1.46,3.89,2.2,6.01,2.23,2.12.03,4.23-.66,6.04-2.07.61-.48,1.19-1.04,1.71-1.68.41-.5.33-1.24-.17-1.65-.5-.41-1.24-.33-1.65.17-.41.51-.86.94-1.33,1.32-1.37,1.07-2.97,1.6-4.57,1.57-1.59-.02-3.19-.6-4.56-1.71-.27-.22-.53-.46-.78-.72-.02-.03-.04-.06-.07-.09-.33-.41-.67-.77-1.03-1.1-1.89-1.77-4.16-2.62-6.46-2.62-2.26,0-4.54.84-6.52,2.43-2.01-3.51-3.86-8.18-4.81-12.55-.83-3.82-.96-7.34.13-9.47,1.67-2.38,4.44-3.32,7.23-4.26.73-.25,1.46-.49,2.24-.79.03,0,.05-.01.07-.02,1.15-.42,1.75-1.39,1.9-2.54.08-.61.01-1.29-.18-1.95-.19-.63-.49-1.26-.91-1.81-.92-1.21-2.35-2.04-4.13-1.79-.14.02-.27.06-.39.13-3.26.91-8.42,2.66-12.25,6.11-3.95,3.56-6.46,8.84-4.11,16.67l-27.01,10.98c-1.2-.51-2.45-.77-3.72-.77-2.4,0-4.82.91-6.89,2.74-.3.27-.59.54-.85.83-.44.47-.42,1.22.05,1.66.47.44,1.22.42,1.66-.05.23-.25.47-.48.7-.68,1.62-1.44,3.49-2.16,5.33-2.15,1.06,0,2.12.25,3.13.73.03.02.06.03.09.05ZM68.77,22.63c-3.02.83-8.01,2.45-11.58,5.68-3.49,3.15-5.65,7.93-3.13,15.22.2.59-.09,1.24-.67,1.47h0s-26.41,10.74-26.41,10.74c.19.16.39.33.57.5.2.19.4.39.6.61,1.63,1.41,3.57,2.04,5.45,2.01,1.94-.03,3.82-.77,5.21-2.07.06-.05.11-.1.16-.15.01-.01.02-.02.03-.03.4-.43.82-.82,1.26-1.18,1.99-1.63,4.29-2.47,6.58-2.48,2.3,0,4.57.85,6.46,2.62.35.33.7.7,1.03,1.1.04.06.09.11.12.17.13.13.25.26.38.39,1.4,1.33,3.06,2.01,4.76,2.03,1.72.02,3.52-.63,5.15-1.96.07-.06.13-.11.2-.17-2.22-3.75-4.3-8.9-5.34-13.68-.94-4.32-1.03-8.41.37-11.08.03-.06.06-.11.1-.17,2.11-3.06,5.27-4.13,8.46-5.2.74-.25,1.48-.5,2.15-.75.03-.01.07-.03.1-.04.21-.08.33-.32.37-.62.04-.31,0-.65-.1-1-.11-.37-.29-.74-.53-1.05-.41-.54-1.02-.93-1.75-.89ZM26.89,67.59c-.12-.06-.23-.15-.32-.26-.02-.03-.05-.05-.07-.08-.04-.03-.07-.07-.11-.1-.23-.21-.44-.41-.62-.61-.02-.02-.04-.04-.05-.06-1.49-1.3-3.21-1.95-4.95-1.95-1.84,0-3.71.72-5.33,2.15-.23.2-.46.43-.7.68-.44.47-1.19.5-1.66.05-.47-.44-.5-1.19-.05-1.66.27-.29.55-.56.85-.83,2.06-1.83,4.48-2.75,6.89-2.74,2.42,0,4.8.93,6.79,2.8.2.19.4.39.6.61,1.63,1.41,3.57,2.04,5.45,2.01,1.94-.03,3.82-.77,5.21-2.07.06-.05.11-.1.16-.15.01-.01.02-.02.03-.03.4-.43.82-.82,1.26-1.18,1.99-1.63,4.29-2.47,6.58-2.48,2.3,0,4.57.85,6.46,2.62.35.33.7.7,1.03,1.1.04.06.09.11.12.17.13.13.25.26.38.39,1.4,1.33,3.06,2.01,4.76,2.03,1.72.02,3.52-.63,5.15-1.96.22-.18.44-.37.66-.58.4-.42.81-.81,1.25-1.17,1.99-1.63,4.29-2.47,6.58-2.48,2.3,0,4.57.85,6.46,2.62.35.33.7.7,1.03,1.1.02.03.05.06.07.09.25.26.51.5.78.72,1.37,1.12,2.96,1.69,4.56,1.71,1.6.02,3.2-.5,4.57-1.57.47-.37.92-.81,1.33-1.32.41-.5,1.15-.58,1.65-.17.5.41.58,1.15.17,1.65-.52.64-1.1,1.2-1.71,1.68-1.8,1.41-3.92,2.1-6.04,2.07-2.12-.03-4.23-.78-6.01-2.23-.6-.49-1.16-1.06-1.67-1.7-.11-.11-.22-.22-.33-.33-1.43-1.34-3.13-1.99-4.85-1.99-1.74,0-3.52.67-5.1,1.96-.2.16-.4.34-.59.53h-.01c-.42.46-.85.86-1.3,1.23-2.07,1.69-4.39,2.52-6.66,2.49-2.29-.03-4.51-.93-6.35-2.67-.35-.33-.69-.69-1.01-1.09-.04-.06-.08-.11-.12-.17-.13-.14-.26-.27-.39-.39-1.43-1.34-3.13-1.99-4.85-1.99-1.74,0-3.52.67-5.1,1.96-.3.25-.6.52-.89.82h0s0,0,0,0c-.15.16-.29.31-.43.43-1.82,1.7-4.26,2.66-6.78,2.7-2.32.04-4.71-.7-6.75-2.35Z"/>
  </g>
</svg>