<?xml version="1.0" encoding="UTF-8"?>
<svg id="Capa_1" data-name="Capa 1" xmlns="http://www.w3.org/2000/svg" xmlns:xlink="http://www.w3.org/1999/xlink" viewBox="0 0 101.99 94.46">
  <defs>
    <style>
      .cls-1 {
        fill: none;
      }

      .cls-2 {
        clip-path: url(#clippath);
      }
    </style>
    <clipPath id="clippath">
      <rect class="cls-1" x="18.74" y="14.02" width="64.5" height="62.25"/>
    </clipPath>
  </defs>
  <g class="cls-2">
    <path d="M51.59,19.83c-.34-.24-.82-.26-1.18-.01l-29.59,20.27v-3.25s30.17-20.44,30.17-20.44l30.17,20.44v3.25s-29.57-20.26-29.57-20.26ZM37.13,48.16h-7.5l1.85-4.14h3.79l1.85,4.14ZM77.85,69.17h-4.22l2.08-9.35c.12-.55-.23-1.1-.79-1.23-.07-.02-.15-.02-.22-.02h0s-3.04,0-3.04,0c.07-.55.12-1.1.22-1.62.11-.59.25-1.18.4-1.75.47-.07.94-.27,1.36-.61.6-.48,1.13-1.23,1.49-2.14.04-.1.08-.23.13-.36.26-.81.35-1.63.3-2.36-.07-.82-.33-1.56-.75-2.09-.22-.28-.56-.41-.89-.38-.68.06-1.39.38-2.03.9-.57.46-1.1,1.1-1.51,1.85-.07.13-.13.24-.17.34l-.03.08c-.39.87-.55,1.74-.48,2.47.06.64.28,1.18.65,1.6-.18.67-.34,1.36-.48,2.08-.01.08-.02.16-.04.24-.1-.55-.2-1.09-.34-1.65-.3-1.23-.72-2.46-1.2-3.7.34-.41.55-.93.6-1.54.06-.74-.09-1.61-.48-2.47l-.03-.08c-.04-.09-.1-.21-.17-.34-.4-.75-.94-1.38-1.51-1.85-.64-.52-1.36-.85-2.03-.9-.33-.03-.67.1-.89.38-.43.53-.69,1.26-.75,2.09-.06.73.03,1.55.3,2.36.04.12.08.24.13.36.35.92.89,1.66,1.49,2.14.45.36.94.57,1.45.62.45,1.15.83,2.29,1.11,3.42.24.97.4,1.94.51,2.9h-2.35c-.57,0-1.04.46-1.04,1.03,0,.11.02.22.05.31l2.06,9.26h-6.79l-.93-3.14c.78-.23,1.49-.63,2.05-1.19.86-.86,1.4-2.05,1.4-3.36v-4.19c0-.59-.25-1.13-.64-1.53h0c-.39-.4-.94-.64-1.53-.64h-2.19s-.06,0-.1,0v-3.79c0-.72-.3-1.38-.77-1.85-.47-.47-1.13-.77-1.85-.77h-8.72c-.72,0-1.38.29-1.85.77-.48.48-.77,1.13-.77,1.85v3.79s-.07,0-.1,0h-2.19c-.59,0-1.14.24-1.53.64h0c-.39.4-.64.94-.64,1.53v4.19c0,1.31.54,2.49,1.4,3.36h0c.56.56,1.27.96,2.04,1.19l-.93,3.14h-7.65v-18.95h4.31c.14,0,.28-.03.42-.09.52-.23.75-.84.52-1.36l-2.74-6.13c-.14-.4-.53-.69-.98-.69h-5.13c-.39,0-.77.23-.94.61l-2.74,6.13c-.08.15-.13.32-.13.5,0,.57.46,1.03,1.04,1.03h4.31s0,18.95,0,18.95h-8.22v-28.85s26.87-18.41,26.87-18.41l26.86,18.4v28.86h0ZM80.09,74.16H21.88v-2.92h58.2v2.92ZM72.34,52.97c-.18.14-.34.22-.44.2-.08-.06-.14-.23-.16-.46-.04-.41.06-.91.3-1.44l.15-.3c.27-.51.62-.93.99-1.23.09-.07.18-.14.27-.19.02.1.03.21.04.32.04.48-.02,1.02-.2,1.57l-.09.24c-.22.57-.53,1.01-.86,1.28ZM66.2,50.01c-.33-.26-.64-.71-.86-1.28l-.09-.24c-.17-.54-.24-1.09-.2-1.57,0-.11.02-.22.04-.32.09.06.18.12.27.19.37.3.72.72.99,1.23l.15.3c.24.53.33,1.03.3,1.44-.02.23-.07.4-.16.46-.11.01-.26-.06-.44-.2ZM66.91,60.63h6.5l-1.9,8.54h-2.7l-1.9-8.54ZM45.09,66.24h11.8l.87,2.94h-13.53l.87-2.94ZM55.9,56.47h-9.82v-5.13c0-.15.06-.29.16-.39h0c.1-.1.24-.16.39-.16h8.72c.15,0,.29.06.39.16.1.1.16.24.16.39v5.13h0ZM55.9,59.71h-9.82v-1.17h9.82v1.17ZM45.04,61.78h11.9c.57,0,1.04-.46,1.04-1.03v-3.45s.01-.05.03-.07c.02-.02.04-.03.07-.03h2.19s.05.01.07.03c.02.02.03.04.03.07v4.19c0,.74-.3,1.41-.79,1.9-.49.49-1.16.79-1.9.79h0s-13.35,0-13.35,0h0c-.74,0-1.42-.31-1.91-.79-.49-.49-.79-1.16-.79-1.9v-4.19s.01-.05.03-.07c.02-.02.04-.03.07-.03h2.19s.05.01.07.03c.02.02.03.04.03.07v3.45c0,.57.47,1.03,1.04,1.03ZM83.22,36.29c0-.37-.19-.69-.48-.87l-31.17-21.12c-.36-.25-.83-.23-1.17,0l-31.19,21.13c-.29.2-.45.52-.45.85v5.76c0,.57.45,1.03,1.02,1.03.22,0,.42-.07.58-.18l1.68-1.15v27.43s-1.2,0-1.2,0c-.57,0-1.04.46-1.04,1.03v4.99c0,.57.46,1.03,1.04,1.03h60.27c.57,0,1.04-.46,1.04-1.03v-4.99c0-.57-.46-1.03-1.04-1.03h-1.2v-27.44l1.69,1.16c.47.32,1.12.2,1.44-.27.13-.19.19-.42.18-.64v-5.7ZM51.17,36.93l.04-.04c.12-.11.29-.17.47-.17.2,0,.37.08.5.21.13.13.21.31.21.5s-.08.37-.21.5l-.04.04c-.12.11-.29.17-.47.17-.2,0-.38-.08-.5-.2h0c-.13-.13-.21-.31-.21-.51,0-.19.08-.37.21-.5ZM51.67,40.2c.73,0,1.4-.28,1.89-.75l.07-.07c.5-.5.82-1.2.82-1.96s-.31-1.46-.82-1.96c-.5-.5-1.2-.81-1.97-.81s-1.4.28-1.89.75l-.07.07c-.5.5-.81,1.2-.81,1.96s.31,1.46.82,1.96c.5.5,1.2.82,1.96.82ZM60.63,34.12v5.98l-3.55-1.46c-.28-.12-.59-.1-.84.02l-5.3,2.55-3.71-2.47c-.28-.18-.64-.23-.97-.1l-3.55,1.46v-5.98h17.92ZM56.67,45.05l-3.74-2.5,3.79-1.82,3.91,1.6v2.72h-3.96ZM42.71,42.34l3.83-1.57,6.42,4.28h-10.25v-2.72h0ZM40.64,33.09v12.99c0,.57.46,1.03,1.04,1.03h19.99c.57,0,1.04-.46,1.04-1.03v-12.99c0-.57-.46-1.03-1.04-1.03h-19.99c-.57,0-1.04.46-1.04,1.03Z"/>
  </g>
</svg>