<?xml version="1.0" encoding="UTF-8"?>
<svg id="Capa_1" data-name="Capa 1" xmlns="http://www.w3.org/2000/svg" xmlns:xlink="http://www.w3.org/1999/xlink" viewBox="0 0 101.99 94.46">
  <defs>
    <style>
      .cls-1 {
        fill: none;
      }

      .cls-2 {
        clip-path: url(#clippath);
      }
    </style>
    <clipPath id="clippath">
      <rect class="cls-1" x="17.24" y="11.4" width="67.5" height="67.5"/>
    </clipPath>
  </defs>
  <g class="cls-2">
    <path d="M35.68,60.24h44.83V15.52h-44.83v44.72ZM81.44,62.09h-46.69c-.26,0-.47-.09-.66-.27-.18-.18-.27-.4-.27-.65V14.6c0-.26.09-.47.27-.65.18-.18.4-.27.66-.27h46.69c.26,0,.47.09.65.27.18.18.27.4.27.65v46.57c0,.26-.09.47-.27.65s-.4.27-.65.27Z"/>
    <path d="M29.73,18.96c-.26,0-.47-.09-.66-.27l-5.08-5.07-5.08,5.07c-.18.18-.4.27-.66.27s-.47-.09-.66-.27c-.18-.18-.27-.4-.27-.65s.09-.47.27-.65l5.73-5.72c.18-.18.4-.27.66-.27s.47.09.66.27l5.73,5.72c.13.13.22.29.25.47.04.18.02.36-.05.53-.07.17-.19.31-.34.41s-.33.16-.51.16Z"/>
    <path d="M23.99,64.36c-.26,0-.47-.09-.66-.27l-5.73-5.72c-.18-.18-.27-.4-.27-.65s.09-.47.27-.65.4-.27.65-.27c.26,0,.47.09.65.27l5.08,5.07,5.08-5.07c.18-.18.4-.27.66-.27s.47.09.66.27c.18.18.27.4.27.65s-.09.47-.27.65l-5.73,5.72c-.18.18-.4.27-.66.27Z"/>
    <path d="M23.99,62.66c-.26,0-.47-.09-.66-.27-.18-.18-.27-.4-.27-.65V12.83c0-.26.09-.47.27-.65.18-.18.4-.27.66-.27s.47.09.66.27c.18.18.27.4.27.65v48.91c0,.26-.09.47-.27.65-.18.18-.4.27-.65.27Z"/>
    <path d="M38.2,78.89c-.26,0-.47-.09-.66-.27l-5.73-5.72c-.18-.18-.27-.4-.27-.65s.09-.47.27-.65l5.73-5.72c.18-.18.4-.27.66-.27s.47.09.66.27c.18.18.27.4.27.65s-.09.47-.27.65l-5.08,5.07,5.08,5.07c.13.13.22.29.25.47s.02.36-.05.53c-.07.17-.19.31-.34.41s-.33.16-.51.16h0Z"/>
    <path d="M77.99,78.89c-.19,0-.36-.05-.51-.16-.16-.1-.27-.24-.34-.41-.07-.17-.09-.35-.05-.53.04-.18.12-.34.25-.47l5.08-5.07-5.08-5.07c-.18-.18-.27-.4-.27-.65,0-.25.09-.47.27-.65.18-.18.4-.27.65-.27s.47.09.65.27l5.73,5.72c.18.18.27.4.27.65s-.09.47-.27.65l-5.73,5.72c-.18.18-.4.27-.66.27Z"/>
    <path d="M82.02,73.17h-49.04c-.26,0-.47-.09-.66-.27-.18-.18-.27-.4-.27-.65s.09-.47.27-.65c.18-.18.4-.27.66-.27h49.04c.26,0,.47.09.66.27.18.18.27.4.27.65s-.09.47-.27.65c-.18.18-.4.27-.66.27Z"/>
  </g>
</svg>