<?xml version="1.0" encoding="UTF-8"?>
<svg id="Capa_1" data-name="Capa 1" xmlns="http://www.w3.org/2000/svg" xmlns:xlink="http://www.w3.org/1999/xlink" viewBox="0 0 101.99 94.46">
  <defs>
    <style>
      .cls-1 {
        fill: none;
      }

      .cls-2 {
        clip-path: url(#clippath-1);
      }

      .cls-3 {
        clip-path: url(#clippath-3);
      }

      .cls-4 {
        clip-path: url(#clippath-2);
      }

      .cls-5 {
        fill-rule: evenodd;
      }

      .cls-6 {
        clip-path: url(#clippath);
      }
    </style>
    <clipPath id="clippath">
      <rect class="cls-1" x="16.49" y="20.7" width="69" height="57.75"/>
    </clipPath>
    <clipPath id="clippath-1">
      <rect class="cls-1" x="16.49" y="50.13" width="69" height="5.75"/>
    </clipPath>
    <clipPath id="clippath-2">
      <rect class="cls-1" x="25.56" y="68.97" width="9.54" height="9.46"/>
    </clipPath>
    <clipPath id="clippath-3">
      <rect class="cls-1" x="16.49" y="20.7" width="69" height="57.75"/>
    </clipPath>
  </defs>
  <g class="cls-6">
    <path class="cls-5" d="M69.17,72.35h-36.35c-7.06,0-9.8-8.27-11.8-14.31-.31-.93-.6-1.81-.89-2.6-.11-.31.05-.66.36-.78.31-.12.66.05.78.36.29.81.59,1.69.9,2.63,1.99,6,4.47,13.48,10.65,13.48h36.35c6.18,0,8.66-7.47,10.65-13.48.31-.94.6-1.82.9-2.63.12-.31.46-.48.78-.36.31.12.48.46.36.78-.29.79-.58,1.67-.89,2.6-2,6.04-4.74,14.31-11.8,14.31"/>
  </g>
  <g class="cls-2">
    <path class="cls-5" d="M82.73,55.85h-11.39c-.33,0-.61-.27-.61-.61s.27-.61.61-.61h11.39c.86,0,1.56-.7,1.56-1.56s-.7-1.56-1.56-1.56H19.26c-.86,0-1.56.7-1.56,1.56,0,.86.7,1.56,1.56,1.56h40.06c.33,0,.61.27.61.61s-.27.61-.61.61H19.26c-1.53,0-2.77-1.25-2.77-2.78s1.24-2.78,2.77-2.78h63.47c1.53,0,2.77,1.25,2.77,2.78s-1.24,2.78-2.77,2.78"/>
  </g>
  <g class="cls-4">
    <path class="cls-5" d="M30.4,78.43h-4.19c-.18,0-.35-.08-.46-.22-.11-.14-.16-.32-.13-.5l1.46-8.11c.06-.33.38-.55.7-.49.33.06.55.38.49.71l-1.33,7.39h3.14l3.78-5.81c.18-.28.56-.36.84-.18.28.18.36.56.17.84l-3.96,6.08c-.11.17-.3.28-.51.28"/>
  </g>
  <g class="cls-3">
    <path class="cls-5" d="M75.78,78.37h-4.19c-.2,0-.4-.1-.51-.28l-3.92-6.02c-.18-.28-.1-.66.17-.84.28-.18.66-.1.84.18l3.74,5.75h3.14l-1.32-7.34c-.06-.33.16-.65.49-.71.33-.06.64.16.7.49l1.45,8.06c.03.18-.02.36-.13.5-.11.14-.29.22-.46.22"/>
    <path class="cls-5" d="M83.34,51.59c.33,0,.6-.26.61-.59v-.1s0-22.92,0-22.92c0-.19,0-.41-.02-.58-.3-3.69-3.26-6.54-6.9-6.63-1.96-.04-3.8.69-5.18,2.08-.35.35-.67.75-.94,1.16-.18.28-.1.66.18.84.28.18.65.1.84-.18.23-.35.49-.67.78-.97,1.15-1.15,2.68-1.76,4.3-1.72,3.01.07,5.47,2.44,5.72,5.51.01.14.02.32.02.48v23c-.01.34.25.61.59.62,0,0,.01,0,.02,0M79.88,51.5c-.33,0-.61-.27-.61-.61v-22.93c-.03-1.38-1.03-2.47-2.33-2.52-.65-.02-1.34.25-1.81.72-.25.25-.44.55-.56.88-.12.31-.47.48-.78.36-.31-.12-.47-.46-.36-.78.18-.49.47-.95.84-1.32.71-.71,1.72-1.11,2.71-1.07,1.95.07,3.46,1.67,3.5,3.72v22.95c0,.34-.27.61-.61.61Z"/>
    <path class="cls-5" d="M73.04,32.41c-.15,0-.31-.06-.43-.18l-6.39-6.42c-.11-.11-.18-.27-.18-.43s.06-.31.18-.43c2-2.01,5.25-2.01,7.25,0,2,2.01,2,5.27,0,7.28-.12.12-.27.18-.43.18M67.53,25.42l5.47,5.49c.49-.67.75-1.47.75-2.32,0-1.05-.41-2.04-1.15-2.78-1.38-1.39-3.55-1.52-5.08-.4Z"/>
    <path class="cls-5" d="M63.26,31.31c-.16,0-.31-.06-.43-.18-.24-.24-.24-.62,0-.86l1.7-1.7c.24-.24.62-.24.86,0,.24.24.24.62,0,.86l-1.7,1.7c-.12.12-.27.18-.43.18"/>
    <path class="cls-5" d="M63.49,35.57c-.15,0-.31-.06-.43-.18-.24-.24-.24-.62,0-.86l3.7-3.72c.24-.24.62-.24.86,0,.24.24.24.62,0,.86l-3.7,3.72c-.12.12-.27.18-.43.18"/>
    <path class="cls-5" d="M67.74,35.81c-.15,0-.31-.06-.43-.18-.24-.24-.24-.62,0-.86l1.7-1.7c.24-.24.62-.24.86,0,.24.24.24.62,0,.86l-1.7,1.7c-.12.12-.27.18-.43.18"/>
    <path class="cls-5" d="M19.7,51.5s-.02,0-.03,0c-.33-.02-.59-.31-.57-.64.09-1.5,1.08-2.73,2.46-3.15-.02-.12-.02-.24-.02-.36,0-1.66,1.34-3.01,2.99-3.01.45,0,.89.1,1.28.29.55-.82,1.48-1.34,2.5-1.34.28,0,.55.04.82.12.61-1.1,1.77-1.81,3.05-1.81,1.91,0,3.46,1.54,3.49,3.45.07,0,.14,0,.21,0,1.49,0,2.73,1.1,2.96,2.53.11,0,.22-.01.33-.01,1.85,0,3.38,1.45,3.48,3.3.02.33-.24.62-.57.64-.33.02-.62-.24-.64-.57-.07-1.21-1.07-2.15-2.27-2.15-.25,0-.49.04-.72.12-.2.07-.41.03-.57-.1-.16-.13-.24-.33-.22-.54,0-.07.01-.13.01-.2,0-.99-.8-1.79-1.78-1.79-.24,0-.47.05-.68.13-.21.09-.46.05-.63-.1-.17-.15-.25-.39-.19-.61.05-.19.07-.38.07-.58,0-1.26-1.02-2.28-2.28-2.28-.98,0-1.85.63-2.16,1.56-.06.17-.19.31-.35.37-.16.07-.35.06-.51-.03-.26-.14-.55-.22-.85-.22-.76,0-1.43.48-1.69,1.2-.06.19-.22.33-.41.38-.19.05-.4,0-.55-.12-.32-.27-.72-.41-1.14-.41-.98,0-1.78.8-1.78,1.79,0,.22.04.42.11.62.07.18.05.37-.05.53-.1.16-.27.26-.45.28-1.1.11-1.98,1.03-2.04,2.14-.02.32-.29.57-.6.57"/>
    <path class="cls-5" d="M69.71,65.98h-8.76c-1.23,0-2.23-1.01-2.23-2.24v-12.84c0-.34.27-.61.61-.61h12.01c.33,0,.61.27.61.61v12.84c0,1.24-1,2.24-2.23,2.24M59.93,51.5v12.24c0,.57.46,1.03,1.02,1.03h8.76c.56,0,1.02-.46,1.02-1.03v-12.24h-10.8Z"/>
    <path class="cls-5" d="M71.33,62.22h-12.01c-.34,0-.61-.27-.61-.61,0-.34.27-.61.61-.61h12.01c.33,0,.61.27.61.61,0,.34-.27.61-.61.61"/>
  </g>
</svg>