<?xml version="1.0" encoding="UTF-8"?>
<svg id="Capa_1" data-name="Capa 1" xmlns="http://www.w3.org/2000/svg" xmlns:xlink="http://www.w3.org/1999/xlink" viewBox="0 0 101.99 94.46">
  <defs>
    <style>
      .cls-1 {
        fill: none;
      }

      .cls-2 {
        fill: #1c1c1c;
      }

      .cls-3 {
        clip-path: url(#clippath);
      }
    </style>
    <clipPath id="clippath">
      <rect class="cls-1" x="13.38" y="12.52" width="70.5" height="65.25"/>
    </clipPath>
  </defs>
  <g class="cls-3">
    <path class="cls-2" d="M16.17,75h11.02v-5.51h-11.02v5.51ZM28.58,77.76h-13.78c-.76,0-1.38-.62-1.38-1.38v-8.27c0-.76.62-1.38,1.38-1.38h13.78c.76,0,1.38.62,1.38,1.38v8.27c0,.76-.62,1.38-1.38,1.38Z"/>
    <path class="cls-2" d="M29.96,75h17.92v-5.51h-17.92v5.51ZM49.25,77.76h-20.67c-.76,0-1.38-.62-1.38-1.38v-8.27c0-.76.62-1.38,1.38-1.38h20.67c.76,0,1.38.62,1.38,1.38v8.27c0,.76-.62,1.38-1.38,1.38Z"/>
    <path class="cls-2" d="M50.63,75h15.16v-5.51h-15.16v5.51ZM67.16,77.76h-17.92c-.76,0-1.38-.62-1.38-1.38v-8.27c0-.76.62-1.38,1.38-1.38h17.92c.76,0,1.38.62,1.38,1.38v8.27c0,.76-.62,1.38-1.38,1.38Z"/>
    <path class="cls-2" d="M68.54,75h12.4v-5.51h-12.4v5.51ZM82.32,77.76h-15.16c-.76,0-1.38-.62-1.38-1.38v-8.27c0-.76.62-1.38,1.38-1.38h15.16c.76,0,1.38.62,1.38,1.38v8.27c0,.76-.62,1.38-1.38,1.38Z"/>
    <path class="cls-2" d="M16.17,66.73h8.27v-5.51h-8.27v5.51ZM25.82,69.49h-11.02c-.76,0-1.38-.62-1.38-1.38v-8.27c0-.76.62-1.38,1.38-1.38h11.02c.76,0,1.38.62,1.38,1.38v8.27c0,.76-.62,1.38-1.38,1.38Z"/>
    <path class="cls-2" d="M27.2,66.73h13.78v-5.51h-13.78v5.51ZM42.36,69.49h-16.54c-.76,0-1.38-.62-1.38-1.38v-8.27c0-.76.62-1.38,1.38-1.38h16.54c.76,0,1.38.62,1.38,1.38v8.27c0,.76-.62,1.38-1.38,1.38Z"/>
    <path class="cls-2" d="M43.74,66.73h15.16v-5.51h-15.16v5.51ZM60.27,69.49h-17.92c-.76,0-1.38-.62-1.38-1.38v-8.27c0-.76.62-1.38,1.38-1.38h17.92c.76,0,1.38.62,1.38,1.38v8.27c0,.76-.62,1.38-1.38,1.38Z"/>
    <path class="cls-2" d="M61.65,66.73h12.4v-5.51h-12.4v5.51ZM75.43,69.49h-15.16c-.76,0-1.38-.62-1.38-1.38v-8.27c0-.76.62-1.38,1.38-1.38h15.16c.76,0,1.38.62,1.38,1.38v8.27c0,.76-.62,1.38-1.38,1.38Z"/>
    <path class="cls-2" d="M16.17,58.46h5.51v-5.51h-5.51v5.51ZM23.06,61.22h-8.27c-.76,0-1.38-.62-1.38-1.38v-8.27c0-.76.62-1.38,1.38-1.38h8.27c.76,0,1.38.62,1.38,1.38v8.27c0,.76-.62,1.38-1.38,1.38Z"/>
    <path class="cls-2" d="M24.44,58.46h9.65v-5.51h-9.65v5.51ZM35.47,61.22h-12.4c-.76,0-1.38-.62-1.38-1.38v-8.27c0-.76.62-1.38,1.38-1.38h12.4c.76,0,1.38.62,1.38,1.38v8.27c0,.76-.62,1.38-1.38,1.38Z"/>
    <path class="cls-2" d="M36.85,58.46h15.16v-5.51h-15.16v5.51ZM53.38,61.22h-17.92c-.76,0-1.38-.62-1.38-1.38v-8.27c0-.76.62-1.38,1.38-1.38h17.92c.76,0,1.38.62,1.38,1.38v8.27c0,.76-.62,1.38-1.38,1.38Z"/>
    <path class="cls-2" d="M54.76,58.46h12.4v-5.51h-12.4v5.51ZM68.54,61.22h-15.16c-.76,0-1.38-.62-1.38-1.38v-8.27c0-.76.62-1.38,1.38-1.38h15.16c.76,0,1.38.62,1.38,1.38v8.27c0,.76-.62,1.38-1.38,1.38Z"/>
    <path class="cls-2" d="M16.17,50.2h9.65v-5.51h-9.65v5.51ZM27.2,52.95h-12.4c-.76,0-1.38-.62-1.38-1.38v-8.27c0-.76.62-1.38,1.38-1.38h12.4c.76,0,1.38.62,1.38,1.38v8.27c0,.76-.62,1.38-1.38,1.38Z"/>
    <path class="cls-2" d="M28.58,50.2h6.89v-5.51h-6.89v5.51ZM36.85,52.95h-9.65c-.76,0-1.38-.62-1.38-1.38v-8.27c0-.76.62-1.38,1.38-1.38h9.65c.76,0,1.38.62,1.38,1.38v8.27c0,.76-.62,1.38-1.38,1.38Z"/>
    <path class="cls-2" d="M47.87,52.95h-11.02c-.76,0-1.38-.62-1.38-1.38v-8.27c0-.76.62-1.38,1.38-1.38h6.39c.76,0,1.38.62,1.38,1.38s-.62,1.38-1.38,1.38h-5.01v5.51h8.27v-3.95c0-.76.62-1.38,1.38-1.38s1.38.62,1.38,1.38v5.33c0,.76-.62,1.38-1.38,1.38Z"/>
    <path class="cls-2" d="M61.65,52.95h-13.78c-.76,0-1.38-.62-1.38-1.38v-5.33c0-.76.62-1.38,1.38-1.38s1.38.62,1.38,1.38v3.95h11.02v-5.51h-5.64c-.76,0-1.38-.62-1.38-1.38s.62-1.38,1.38-1.38h7.02c.76,0,1.38.62,1.38,1.38v8.27c0,.76-.62,1.38-1.38,1.38Z"/>
    <path class="cls-2" d="M52.44,24.76c-.07.01-.16.05-.21.17l-7.47,17.55c-.31.72-.15,1.55.41,2.11.56.56,1.39.72,2.12.4l17.43-7.57c.12-.05.16-.14.17-.21.01-.07,0-.17-.08-.26l-12.11-12.11c-.07-.07-.16-.1-.26-.08ZM43.22,46.54c-1.36-1.36-1.75-3.37-1-5.14l7.47-17.55c.85-1.99,3.44-2.48,4.96-.96h0l12.11,12.11c1.52,1.52,1.03,4.09-.94,4.95l-17.43,7.57c-1.76.77-3.79.39-5.17-.98Z"/>
    <path class="cls-2" d="M63.22,23.66l2.92,2.92,7.31-7.31c.81-.81.81-2.12,0-2.92-.81-.81-2.12-.81-2.92,0l-7.31,7.31ZM65.17,29.5l-4.87-4.87c-.54-.54-.54-1.41,0-1.95l8.28-8.28c1.88-1.88,4.94-1.88,6.82,0,1.88,1.88,1.88,4.94,0,6.82l-8.28,8.28c-.54.54-1.41.54-1.95,0Z"/>
    <path class="cls-2" d="M55.84,33.82c-.54-.54-.54-1.41,0-1.95l6.82-6.82c.54-.54,1.41-.54,1.95,0,.54.54.54,1.41,0,1.95l-6.82,6.82c-.54.54-1.41.54-1.95,0Z"/>
    <path class="cls-2" d="M16.17,41.93h6.89v-5.51h-6.89v5.51ZM24.44,44.68h-9.65c-.76,0-1.38-.62-1.38-1.38v-8.27c0-.76.62-1.38,1.38-1.38h9.65c.76,0,1.38.62,1.38,1.38v8.27c0,.76-.62,1.38-1.38,1.38Z"/>
    <path class="cls-2" d="M25.82,41.93h9.65v-5.51h-9.65v5.51ZM36.85,44.68h-12.4c-.76,0-1.38-.62-1.38-1.38v-8.27c0-.76.62-1.38,1.38-1.38h12.4c.76,0,1.38.62,1.38,1.38v8.27c0,.76-.62,1.38-1.38,1.38Z"/>
    <path class="cls-2" d="M16.17,33.66h9.65v-5.51h-9.65v5.51ZM27.2,36.42h-12.4c-.76,0-1.38-.62-1.38-1.38v-8.27c0-.76.62-1.38,1.38-1.38h12.4c.76,0,1.38.62,1.38,1.38v8.27c0,.76-.62,1.38-1.38,1.38Z"/>
  </g>
</svg>