<?xml version="1.0" encoding="UTF-8"?>
<svg id="Capa_1" data-name="Capa 1" xmlns="http://www.w3.org/2000/svg" xmlns:xlink="http://www.w3.org/1999/xlink" viewBox="0 0 101.99 94.46">
  <defs>
    <style>
      .cls-1 {
        fill: none;
      }

      .cls-2 {
        fill: #1c1c1c;
      }

      .cls-3 {
        clip-path: url(#clippath);
      }
    </style>
    <clipPath id="clippath">
      <rect class="cls-1" x="12.31" y="16.1" width="74.25" height="62.25"/>
    </clipPath>
  </defs>
  <g class="cls-3">
    <path class="cls-2" d="M85.28,42.6c-.18,0-.35-.05-.51-.16l-35.44-24.26L13.9,42.44c-.41.28-.98.18-1.26-.23-.28-.41-.18-.98.24-1.26l35.95-24.61c.31-.21.72-.21,1.02,0l35.95,24.61c.41.29.52.85.24,1.26-.18.26-.46.39-.75.39"/>
    <path class="cls-2" d="M19.52,78.24c-.5,0-.91-.41-.91-.9v-39.84c0-.5.41-.91.91-.91s.91.41.91.91v39.84c0,.5-.41.9-.91.9"/>
    <path class="cls-2" d="M79.14,78.24c-.5,0-.91-.41-.91-.9v-39.84c0-.5.41-.91.91-.91s.9.41.9.91v39.84c0,.5-.41.9-.9.9"/>
    <path class="cls-2" d="M62.47,35.64c-.18,0-.37-.05-.53-.17l-12.62-9.03-12.62,9.03c-.41.29-.97.2-1.26-.21-.29-.41-.2-.97.21-1.26l13.15-9.4c.32-.22.74-.22,1.05,0l13.15,9.4c.41.29.5.86.21,1.26-.18.25-.45.38-.74.38"/>
    <path class="cls-2" d="M40.54,66.26h-7.95c-.5,0-.9-.41-.9-.9s.4-.91.9-.91h6.14v-.33c0-.79-.59-1.47-1.37-1.59l-4.63-.67c-.5-.07-.84-.53-.77-1.03.07-.5.54-.83,1.03-.77l4.63.67c1.67.24,2.92,1.7,2.92,3.38v2.14"/>
    <path class="cls-2" d="M66.37,78.24h-1.65c-2.13,0-3.86-1.73-3.86-3.86v-2.52h-23.07v2.52c0,2.12-1.73,3.86-3.86,3.86h-1.65c-2.13,0-3.86-1.73-3.86-3.86v-14.82l-2.44-.89c-.64-.24-1.07-.85-1.07-1.53v-2.42c0-.9.73-1.62,1.62-1.62h3.42c.64,0,1.24-.35,1.55-.92l3.41-6.25c.83-1.52,2.41-2.46,4.14-2.46h20.52c1.73,0,3.31.94,4.14,2.46l3.41,6.25c.31.56.9.92,1.55.92h3.42c.9,0,1.62.73,1.62,1.62v2.42c0,.68-.43,1.29-1.07,1.53l-2.43.89v14.82c0,2.12-1.73,3.86-3.86,3.86M35.99,70.05h26.69v4.33c0,1.13.92,2.04,2.05,2.04h1.65c1.13,0,2.04-.92,2.04-2.04v-16.08l3.5-1.28v-2.1h-3.23c-1.31,0-2.51-.71-3.14-1.86l-3.41-6.25c-.51-.93-1.49-1.51-2.55-1.51h-20.52c-1.06,0-2.04.58-2.55,1.51l-3.41,6.25c-.63,1.15-1.83,1.86-3.14,1.86h-3.23v2.1l3.5,1.28v16.08c0,1.13.92,2.04,2.04,2.04h1.65c1.13,0,2.05-.92,2.05-2.04v-4.33Z"/>
    <path class="cls-2" d="M62.55,54.98h-26.43c-.5,0-.9-.41-.9-.9s.41-.91.9-.91h26.43c.5,0,.9.41.9.91s-.41.9-.9.9"/>
    <path class="cls-2" d="M66.07,66.26h-7.95v-2.14c0-1.68,1.26-3.14,2.93-3.38l4.63-.67c.49-.07.96.27,1.03.77.07.5-.27.96-.77,1.03l-4.63.67c-.78.11-1.37.79-1.37,1.59v.33h6.14c.5,0,.9.41.9.91s-.4.9-.9.9"/>
    <path class="cls-2" d="M54.48,66.37h-10.3c-.5,0-.91-.41-.91-.9s.41-.91.91-.91h10.3c.5,0,.91.41.91.91s-.41.9-.91.9"/>
    <path class="cls-2" d="M54.48,66.37s-.07,0-.11,0c-.5-.06-.85-.51-.79-1l.35-3.07h-9.21l.35,3.07c.06.5-.3.94-.79,1-.5.06-.95-.3-1-.79l-.59-5.09h13.27l-.59,5.09c-.05.46-.45.8-.9.8"/>
    <path class="cls-2" d="M36.89,71.87h-3.09c-.5,0-.9-.41-.9-.91s.41-.91.9-.91h3.09c.5,0,.91.41.91.91s-.41.91-.91.91"/>
    <path class="cls-2" d="M65.74,71.87h-3.97c-.5,0-.91-.41-.91-.91s.41-.91.91-.91h3.97c.5,0,.9.41.9.91s-.4.91-.9.91"/>
    <path class="cls-2" d="M36.89,71.87h-3.97c-.5,0-.9-.41-.9-.91s.4-.91.9-.91h3.97c.5,0,.91.41.91.91s-.41.91-.91.91"/>
  </g>
</svg>