<?xml version="1.0" encoding="UTF-8"?>
<svg id="Capa_1" data-name="Capa 1" xmlns="http://www.w3.org/2000/svg" xmlns:xlink="http://www.w3.org/1999/xlink" viewBox="0 0 101.99 94.46">
  <defs>
    <style>
      .cls-1 {
        fill: none;
      }

      .cls-2 {
        clip-path: url(#clippath);
      }
    </style>
    <clipPath id="clippath">
      <rect class="cls-1" x="23.62" y="8.77" width="54.75" height="72.75"/>
    </clipPath>
  </defs>
  <g class="cls-2">
    <path d="M42.01,51.25v.02c.3.46.57.77.81.93,2.62,1.39,3.96,2.23,4.03,2.5.39.48.69,1.06.88,1.74.27.84.41,1.6.42,2.3-.15,3.14-.57,6.1-1.27,8.87-.25,1-.76,2.62-1.52,4.85l-1.7,4.66c-.22.61-.65,1.94-1.28,4l-.16.4c.42-.69.7-1.2.85-1.53,1.23-2.93,2.08-4.89,2.52-5.87.25-.59.87-2.4,1.86-5.41.9-2.69,1.38-5.98,1.43-9.87,0-.77-.19-1.68-.58-2.73-.22-.67-.58-1.28-1.08-1.84-.47-.56-1.92-1.32-4.36-2.25-.44-.27-.73-.52-.87-.77"/>
    <path d="M48.23,46.55l.06,1.15c.02.21.04.4.07.58.04.26.11.51.18.74.09.31.3.92.63,1.82.06.19.1.34.13.45.07.43.06.69-.03.78-.21.06-.45.09-.71.09-.7,0-1.57-.22-2.61-.66-.66-.25-1.35-.68-2.05-1.29h0c-.1-.09-.2-.17-.3-.27h0s-.04.05-.04.05c-.01.02-.03.03-.04.05.08.11.17.21.26.32h0s0,0,0,0c.62.71,1.37,1.27,2.26,1.69,1.05.49,1.91.74,2.6.74.35,0,.66-.06.92-.19.35-.19.46-.63.32-1.33-.02-.11-.09-.3-.2-.57-.7-1.55-1.03-2.32-1.01-2.33-.25-.84-.39-1.45-.44-1.82h0Z"/>
    <path d="M54.54,46.09l.02.09c.17.83.4,1.8.68,2.88l.76,2.68c.07.23.14.51.21.82.28,1.22.52,2.37.71,3.46.13.7.21,1.52.27,2.46.02.39.03.71.02.97l-.08,1.8c.01.23.05.4.1.52.43.64.94.73,1.51.28.95-.85,1.65-1.93,2.1-3.23-.55,1.08-1.25,1.99-2.11,2.73-.47.47-.84.49-1.1.06-.03-.11-.04-.26-.05-.45l.16-1.4c.02-.58.03-1.01.02-1.3-.02-1.15-.1-2.04-.22-2.68-.32-1.46-.63-2.7-.94-3.74l-2.07-5.97"/>
    <path d="M62.27,60.62l-.06.06c-.82.67-1.56,1.36-2.25,2.08l-2.08,2.41c-.2.27-.34.56-.41.85-.08.32-.07.67.02,1.05.42,1.79.95,3.85,1.6,6.18.34,1.03.92,1.87,1.73,2.53l4.1,3.1.54.33,2.75,1.47-.52-.51-.43-.36-2.24-1.59c-.83-.78-2.09-1.87-3.78-3.27-.58-.56-.99-1.29-1.23-2.16l-1.7-5.9c-.07-.27-.1-.49-.07-.66.05-.24.13-.44.24-.6.71-.94,1.34-1.83,1.89-2.65l1.9-2.36"/>
    <path d="M61.45,53.66h-.03c-.48,0-.92.16-1.33.49-.44.36-.72.81-.84,1.35-.24.87.11,2.03,1.04,3.49-.59-1.14-.85-2.13-.81-2.98.09-.82.51-1.41,1.27-1.78.28-.12.56-.15.83-.1.1.02.55.33,1.37.92.05.04.14.07.26.08.1,0,.16-.01.18-.03.78-.39,1.3-.62,1.56-.67.34-.1.64-.11.91-.02.71.16,1.28.67,1.72,1.53.07.2.08.4,0,.58-.02.12-.17.35-.44.71-.04.08-.05.15-.05.23,0,.09.02.18.08.3.44.78.65,1.17.62,1.17.06.19.04.36-.05.52-.11.24-.28.43-.52.58-.16.1-.5.21-1.02.33-.05.02-.11.05-.18.11-.05.02-.24.36-.58,1.04-.07.11-.13.2-.19.27-.26.27-.5.43-.71.48-.14.05-.32-.01-.54-.17-.01.01-.32-.32-.92-1.01-.03-.04-.07-.07-.13-.1-.1-.05-.19-.09-.29-.11-.54-.06-.86-.11-.95-.15-.24-.1-.42-.21-.52-.34-.62-1.15-.79-2.18-.5-3.1-.37,1.02-.28,2.09.28,3.22.14.2.35.35.63.47.17.07.5.13.99.18l.23.11.77.89c.07.09.14.15.21.21.24.2.47.29.67.27.72-.08,1.34-.67,1.85-1.76l.07-.04c.32-.05.56-.1.7-.15.18-.06.33-.12.45-.19.28-.17.51-.41.7-.74.18-.3.23-.62.15-.98.01-.09-.2-.51-.63-1.27.5-.6.65-1.18.45-1.73-.44-.97-1.11-1.61-2.02-1.91-.44-.14-.86-.15-1.28-.03-.47.12-1.04.38-1.72.78-.03,0-.05-.01-.08-.03-.54-.4-.93-.65-1.15-.77-.22-.12-.4-.18-.55-.18M67.79,57.49h0s0,0,0,0h0s0,0,0,0h0s0,0,0,0c0,0,0,0,0,0,0,0,0,0,0,0h0s0,0,0,0"/>
    <path d="M43.95,46.86h.02c.51.37.69.73.55,1.1,0,0,0,0,0,0h0s-.18.39-.61,1.16c-.08.17-.17.43-.26.77l-.07.11c-.09.1-.19.18-.3.24-.79.38-1.17.57-1.13.57,0,0,0,0,0,0h0c-.18.13-.31.29-.4.48-.04.12-.07.23-.07.32.08.49.09.85.04,1.1-.33.75-.49,1.17-.49,1.27l-.03.26c.03.35.03.64,0,.87-.04.27-.09.49-.17.66-.51.74-1.04,1.11-1.59,1.12-.02,0-.05,0-.07,0-.12,0-.28-.02-.46-.06-.84-.25-1.32-.38-1.42-.38,0,0,0,0,0,0l-.34-.02c-.47.06-.84.09-1.11.09-.09,0-.16,0-.23-.01-.36-.02-.66-.1-.91-.24-.17-.1-.34-.26-.51-.51-.59-1.11-.99-1.92-1.22-2.44-.16-.4-.15-.86.05-1.37.21-.59.75-1.34,1.62-2.26.15-.27.25-.77.29-1.51.11-.33.21-.6.32-.79h0c-.32.51-.48.76-.47.77-.15.6-.31,1.02-.47,1.26-.07.11-.16.22-.24.31-.41.4-.7.7-.87.91-.22.26-.4.52-.54.77-.23.41-.37.8-.4,1.17-.03.32,0,.6.07.85.02.13.29.79.83,1.98.25.71.6,1.21,1.05,1.52.32.21.68.35,1.07.43.23.04.46.06.7.06l1.2-.04,1.07.35c.33.08.6.12.82.12.72-.01,1.32-.29,1.81-.81.41-.43.66-.85.74-1.27.06-.22.11-.79.13-1.72.29-.76.43-1.19.42-1.27.02-.18.02-.34.01-.46l-.09-.76c.06-.11.13-.2.21-.26.51-.3.84-.51.97-.63.17-.16.31-.32.42-.47.06-.09.09-.16.11-.21l.18-.76c.3-.65.45-1.02.47-1.12.16-.56-.08-.98-.72-1.26h0Z"/>
    <path d="M41.07,39.31h-.05c-.8,0-1.44.39-1.9,1.18-.39.8-.33,1.59.16,2.35-.49.05-.99.18-1.5.41l-.82-.5c-.14-.07-.31-.11-.51-.13-.2-.01-.38,0-.53.07-.07.02-.25.15-.53.37-.06.05-.12.07-.17.07.01.03-.37-.08-1.17-.34-.16-.03-.34-.01-.54.06-.27.09-.52.28-.77.57-.03-.01-.22.37-.59,1.17.05.08-.49.18-1.64.3-.08,0-.23.07-.46.19-.49.2-.97.68-1.44,1.43-.34.57-.5,1.21-.5,1.93-.02.16.14.93.48,2.31l.31,2.07c.02.17.07.36.15.58.13.49.51,1.01,1.15,1.57.51.4,1.02.59,1.53.58.26.01.57-.06.93-.23-.69.14-1.29.03-1.81-.33-.76-.64-1.21-1.31-1.33-2.03l-.26-2.36c-.32-1.34-.46-2.13-.41-2.36.11-.93.56-1.67,1.33-2.21.14-.09.3-.15.46-.18,1.09-.05,1.75-.15,1.98-.32.22-.04.54-.5.94-1.39.17-.16.28-.23.31-.21.7.28,1.17.41,1.43.38.3,0,.65-.16,1.04-.47l.99.52c.14.05.29.08.47.08.09,0,.17-.01.24-.03.47-.21.86-.34,1.19-.4.22-.06.57-.05,1.05.01.14,0,.23-.03.28-.07.25-.18.34-.39.27-.66,0-.05-.05-.12-.12-.23-.47-.59-.71-.93-.72-1.02-.14-.28-.18-.55-.11-.82.24-.76.76-1.07,1.54-.95.34.05.6.11.79.19.14.09.26.21.36.38.05.07.09.16.11.27l.25,1.35c.01.08.08.27.2.55.1.21.2.39.31.54.45.57.74.97.88,1.21.18.29.33.6.44.93.32.8.13,1.81-.56,3.04.36-.45.59-.75.66-.9.4-.69.52-1.39.37-2.1-.09-.38-.21-.73-.36-1.05-.1-.24-.37-.71-.81-1.42l-.23-.49c-.08-.23-.12-.38-.13-.44l-.26-1.46c-.02-.11-.05-.21-.1-.3-.23-.72-.99-1.13-2.28-1.2M33.9,43.9h0s0,0,0,0h0s0,0,0,0h0s0,0,0,0h0s0,0,0,0h0s0,0,0,0h0s0,0,0,0c0,0,0,0,0,0,0,0,0,0,0,0h0s0,0,0,0c0,0,0,0,0,0h0"/>
    <path d="M37.41,31.41l-.04.03c-.7.5-1.26,1.16-1.67,1.99-.08.2-.14.45-.17.76-.02.26-.02.82.02,1.69,0,.08-.02.15-.06.22-.03.06-.08.11-.14.16-.5.26-.83.49-.97.68-.27.3-.44.62-.53.96-.1.41-.1.81,0,1.21.03.12.09.31.2.56.1.25.26.61.49,1.09.03.05.04.11.05.16,0,.07,0,.13-.02.18-.28.6-.42.97-.42,1.13-.03.29.05.58.23.87-.15-.24-.18-.53-.09-.85,0-.05.18-.39.56-1.02.04-.09.06-.19.06-.31,0-.06-.01-.14-.03-.22-.35-.97-.53-1.53-.55-1.67-.05-.3-.04-.61.04-.92.07-.25.21-.49.42-.73.07-.07.14-.13.19-.17l.75-.49c.13-.12.23-.25.3-.39.06-.13.09-.26.09-.41l-.09-1.19c-.01-.2-.02-.35-.02-.45,0-.27.03-.53.1-.76.12-.48.56-1.19,1.32-2.12"/>
    <path d="M46.51,13.44h-.05c-.74,0-1.39.27-1.96.78-.58.51-1.07,1.38-1.45,2.61-.1,0-.25-.01-.44-.06-.87-.28-1.58-.49-2.1-.61-.59-.13-1.14-.22-1.62-.25-1.09.02-2.01.25-2.78.68-.99.67-1.81,1.52-2.46,2.57-.49.89-.66,1.71-.5,2.46-.91-.53-1.61-.38-2.09.45-.23.44-.23.94,0,1.49l.28.41,1.29,1.51c-.53,1-.39,2,.4,2.99.44.59,1.21,1.16,2.31,1.72,1.06.56,1.98.82,2.75.78.61,0,1.29-.11,2.04-.36-1.51.15-2.62.08-3.3-.22-1.61-.71-2.7-1.44-3.28-2.19-.33-.43-.52-.83-.58-1.19-.07-.28-.02-.67.15-1.18-.02-.21-.07-.41-.15-.6-.11-.38-.5-1.01-1.19-1.91l-.1-.37c-.03-.35.09-.62.36-.83.08-.02.19-.02.33.02.55.25.89.37,1.01.37.26.05.46.01.6-.13.05-.06.07-.14.07-.25-.07-.55-.09-.97-.05-1.27.04-.32.14-.66.3-1,.46-.85,1.13-1.63,2.01-2.33.68-.45,1.54-.68,2.57-.71.52-.03,1.72.26,3.62.88.32.07.61.06.86,0,.21-.07.36-.19.47-.36l.63-1.66c.22-.4.46-.72.7-.96.48-.43,1.08-.6,1.81-.51.7.07,1.28.4,1.75,1,.27.31.54.7.82,1.16l1.29,2.45c.11.08.24.14.42.17.77-.04,1.26-.01,1.46.09.37.13.79.44,1.26.92-.24-.52-.61-.92-1.1-1.2-.31-.17-.82-.25-1.54-.25-.11-.04-.18-.08-.22-.11-.71-2.05-1.49-3.44-2.33-4.17-.57-.54-1.32-.83-2.24-.86"/>
    <path d="M68.8,25.95s0,0,0,0h-.08s0,0,0,0c-.33,0-.68.05-1.06.16,1.09.08,1.7.15,1.83.21.28.05.64.22,1.1.5l1.83,1.81,2.4,1.31c.41.24.68.43.83.56.85.75,1.34,1.47,1.48,2.15.09.37.02.8-.21,1.29-.12.32-.57.94-1.35,1.85-.1.13-.14.26-.14.39,0,.16.07.35.21.58.74.79,1.13,1.28,1.17,1.46.14.45.12.85-.07,1.19-.36.69-.97,1.28-1.83,1.79-.27.15-.56.25-.85.3h-1.31c-.21.06-.37.17-.47.33-.03.28,0,.54.09.76l.67,1.17c.09.18.18.4.25.66.12.43.09.79-.1,1.09-.24.3-.65.5-1.25.59-.13.02-.28.03-.44.03-.13,0-.26,0-.41-.02l-1.58-.24s-.07,0-.11,0c-.2,0-.42.05-.67.15-.28.17-.44.36-.48.55,0,0,0,0,0,0-.04,0-.08.59-.13,1.77-.02.19-.07.34-.15.45-.2.34-.72.53-1.54.56-.07,0-.13,0-.2,0-.51,0-1.05-.08-1.62-.24-.3-.05-1.25-.41-2.85-1.06-.09,0-.18-.01-.26-.01-.12,0-.22.01-.31.03-.67.24-1.17.37-1.51.38-.1,0-.21,0-.31,0-.43,0-.84-.05-1.23-.15-1.24-.41-2.32-.85-3.24-1.33h0s.12.35.12.35c.91.57,1.97,1.09,3.19,1.55.46.14.88.21,1.28.21.04,0,.08,0,.12,0,.02,0,.04,0,.06,0,.32,0,.82-.09,1.52-.28.1-.01.18-.02.25-.02.05,0,.1,0,.13.01,1.82.78,2.81,1.16,2.95,1.16.69.2,1.3.3,1.83.3.04,0,.07,0,.11,0,1.07,0,1.83-.29,2.28-.87.17-.21.28-.48.34-.81.04-.2.06-.76.06-1.69.01-.13.05-.21.11-.24.8.35,1.54.53,2.23.53.88,0,1.67-.29,2.37-.88.83-.96.73-2.22-.3-3.77h0s.09,0,.13,0c.87,0,1.72-.34,2.56-1.02.96-.87,1.49-1.71,1.6-2.54.15-.82-.4-1.77-1.63-2.87.87-.89,1.4-1.75,1.59-2.58.12-.76-.08-1.51-.58-2.25-.24-.38-.68-.83-1.32-1.37-.23-.17-.49-.33-.79-.48l-2.5-1.28-1.19-1.2c-.24-.22-.43-.39-.58-.49-.61-.37-1.27-.55-1.99-.55Z"/>
    <path d="M54.72,46.93h0c.02.1.05.2.07.3.06.04.12.08.18.12l-.12-.35s-.09-.04-.13-.07h0Z"/>
    <path d="M67.98,15h-.06c-.87.04-1.59.21-2.15.49-.23.03-1.06.61-2.49,1.75-.09.06-.19.1-.3.12-.14.03-.3.04-.48,0-1.28-.36-2.09-.54-2.42-.54-.82-.02-1.5.11-2.04.39-.35.17-.63.38-.86.63-.11.12-.53.74-1.26,1.87l-1.36.09c-.28.03-.51.07-.69.12-.55.14-1.03.39-1.45.75-.71.62-1.07,1.45-1.07,2.48.32-1.06.74-1.77,1.28-2.15.41-.31.87-.52,1.39-.61.32-.08.95-.11,1.88-.08.09,0,.18-.04.29-.08l1.47-1.91c.21-.21.47-.37.77-.49.48-.19,1.06-.26,1.74-.22.22,0,.96.2,2.21.59.17.04.41.04.71,0,.21-.03.44-.11.67-.24l1.78-1.29c.39-.22.73-.38,1.03-.48.86-.28,1.81-.3,2.83-.05.7.16,1.31.57,1.82,1.24.19.26.36.58.52.95l.85,2.16c.09.08.22.15.38.21,1.44.31,2.23.55,2.37.73.45.28.82.73,1.1,1.36.77,2.07.1,4.18-2.01,6.31,2.58-1.98,3.35-4.32,2.29-7.04-.26-.58-.66-1.02-1.17-1.31-.2-.12-.42-.22-.68-.32l-1.78-.54c-.47-2.03-1.12-3.33-1.96-3.89-.83-.67-1.88-1.01-3.15-1.01"/>
    <path d="M51.69,34.72h-.04c-.86,0-1.45.34-1.77,1.05.44-.55,1.03-.79,1.77-.72.42.04.77.14,1.06.29.31.15.81.51,1.49,1.06.1.06.2.11.31.13.15.03.31.03.45,0,.77-.52,1.38-.76,1.82-.71.73.03,1.27.28,1.63.75.31.33.49.66.55,1,0,.06-.17.31-.52.76-.11.2-.17.37-.19.49-.02.19-.01.3,0,.34.21.52.32.97.34,1.35.02.47-.06.96-.23,1.46-.19.64-.52,1.16-1,1.56l-.85.49c-.62.52-.94.78-.97.78-.2.12-.45.22-.78.3-.85.18-1.57.28-2.17.33,0,.02-.73-.02-2.19-.12-.26-.01-.42-.01-.49,0-.19,0-.77.2-1.75.58-.15.04-.31.06-.48.05-.68-.01-1.23-.33-1.64-.95.29.76.91,1.18,1.85,1.24.16,0,.29-.02.37-.04.91-.29,1.44-.44,1.61-.45l.35.02c1.04.15,1.71.24,2,.27.15.02.32.03.51.03,1.26-.07,2.2-.21,2.81-.44.22-.08.37-.16.47-.22l1.01-.76.76-.38s.16-.11.44-.37c.49-.46.84-1.06,1.06-1.8.36-1.07.28-2.15-.23-3.24.48-.5.7-.93.67-1.31-.07-.53-.36-1.05-.89-1.55-.61-.58-1.28-.85-2.02-.82-.32,0-.63.06-.91.17-.28.1-.65.33-1.09.68h-.2c-.05,0-.1-.03-.15-.05-.37-.27-.74-.52-1.11-.75-.16-.1-.31-.18-.44-.23-.39-.17-.8-.26-1.23-.25"/>
    <path d="M48.69,32.41h-.02c-.67.02-1.26.18-1.8.49-.21.12-.41.28-.6.47-.2.19-.44.48-.7.85-.02.03-.06.05-.11.07-.05.02-.14.02-.27-.02-.55-.22-.97-.37-1.24-.43-.18-.05-.38-.07-.6-.06-.73.03-1.36.24-1.92.61-.24.18-.41.35-.51.51-.12.17-.33.55-.61,1.15-.07.05-.18.08-.31.1-.1.02-.34.03-.73.02-.12.02-.22.04-.3.08-.32.15-.55.38-.69.69-.37.76-.16,1.58.63,2.48-.63-.95-.71-1.76-.24-2.45.14-.16.3-.28.5-.34.05-.01.11-.02.16-.02.32.04.56.05.74.03.23-.02.4-.07.51-.15.06-.03.12-.09.17-.17.4-.68.64-1.05.71-1.12.19-.21.43-.37.72-.47.52-.17.93-.24,1.22-.21.13,0,.24.03.34.06l1.25.42c.24.05.45.05.61,0,.18-.05.32-.13.43-.24.5-.73.89-1.17,1.18-1.32.57-.34,1.15-.52,1.75-.53,1.24,0,2.12.65,2.64,1.92-.28-1.53-1.26-2.33-2.93-2.41"/>
    <path d="M32,18.7h-.07c-1.07.07-1.84.4-2.28,1.01-.31.38-.5.77-.55,1.17-.02.16-.03.31-.01.44l.22,1.09c-1.1.31-1.79.64-2.07.99-.22.25-.39.57-.51.97l-.08.37-.16,1.1c-.96.47-1.63.88-2.01,1.23-.37.42-.59.92-.67,1.51-.09.91.14,1.75.69,2.53.65,1.01,1.57,1.88,2.75,2.6l-1.35,1.23-.37.38c-.39.48-.7,1.01-.94,1.6-.55,1.42-.62,2.82-.22,4.17.5,1.31,1.12,2.28,1.86,2.91.89.75,1.81,1.1,2.77,1.05h.36c-.54-.04-1.18-.25-1.94-.64-.38-.21-.73-.49-1.05-.83-.75-.85-1.25-1.8-1.51-2.84-.28-1.13-.12-2.36.48-3.68.17-.37.46-.78.87-1.25l.39-.34c.77-.52,1.25-.89,1.47-1.11.15-.17.22-.38.23-.63,0-.29-.09-.54-.27-.77-1.15-.78-2.03-1.63-2.64-2.54-.4-.55-.57-1.13-.52-1.74.06-.39.19-.69.39-.91l1.74-1.2c.12-.07.22-.17.29-.28.05-.09.09-.2.11-.32.07-.81.12-1.27.15-1.37.08-.3.2-.55.36-.73.08-.13.67-.42,1.75-.86.14-.08.23-.16.27-.25.06-.1.08-.21.06-.35-.01-.15-.11-.54-.3-1.17-.01-.1-.01-.19,0-.26.02-.3.14-.61.38-.94.25-.34.53-.58.83-.7.08-.07.72-.27,1.95-.6l-.85-.04M27.26,33.7h0s0,0,0,0c0,0,0,0-.01,0,0,0,0,0,0,0,0,0,0,0,0,0,0,0,0,0,0,0,0,0,0,0,0,0,0,0,0,0,0,0,0,0,0,0,0,0h0M27.25,33.7h0s0,0,0,0h0"/>
    <path d="M52.8,8.76h-.04c-.54.02-1.09.16-1.64.43-.38.17-.88.55-1.52,1.16-.18.11-.35.18-.49.22-.17.03-.32.03-.43.02-1.6-.32-2.48-.49-2.66-.5-.54-.07-.97-.09-1.29-.09-1.02.04-1.98.3-2.88.78-2.76,1.8-3.89,3.69-3.38,5.68-.11-.94.14-1.85.75-2.71.79-1.05,1.83-1.9,3.11-2.56.8-.35,1.63-.52,2.51-.51.38.02.77.07,1.18.14l2.6.58c.16.02.36.02.59-.01.19-.02.4-.1.64-.22l.76-.5,1.18-.65c.46-.21.84-.31,1.13-.29.49-.01,1.08.17,1.75.53l.39.26c.83.7,1.39,1.15,1.67,1.36.26.2.47.33.62.4.17.07.32.11.46.14.81.08,1.59.2,2.35.36.5.12.94.28,1.33.49,1.4.8,2.68,1.9,3.83,3.31-.87-1.6-2.06-2.9-3.57-3.88-.41-.25-.92-.46-1.5-.63-.12-.07-.86-.2-2.24-.4-.08-.02-.19-.05-.31-.11-.13-.03-.83-.62-2.1-1.77-.17-.13-.35-.25-.55-.37-.72-.42-1.47-.63-2.24-.64"/>
  </g>
</svg>