<?xml version="1.0" encoding="UTF-8"?>
<svg id="Capa_1" data-name="Capa 1" xmlns="http://www.w3.org/2000/svg" xmlns:xlink="http://www.w3.org/1999/xlink" viewBox="0 0 101.99 94.46">
  <defs>
    <style>
      .cls-1 {
        fill: none;
      }

      .cls-2 {
        fill: #1c1c1c;
      }

      .cls-3 {
        clip-path: url(#clippath);
      }
    </style>
    <clipPath id="clippath">
      <rect class="cls-1" x="23.24" y="16.95" width="55.5" height="60.75"/>
    </clipPath>
  </defs>
  <g class="cls-3">
    <path class="cls-2" d="M52.69,52.65c-.84.22-1.72.06-2.42-.44-.7-.5-1.15-1.28-1.21-2.15l-.79-10.72c-.04-.51-.48-.9-1-.86-.51.04-.9.48-.86,1l.79,10.72c.1,1.42.83,2.7,1.99,3.53.82.58,1.78.88,2.75.88.41,0,.82-.05,1.23-.16.5-.13.79-.64.66-1.14-.13-.5-.64-.79-1.14-.66Z"/>
    <path class="cls-2" d="M41.03,38.33c0,.18-.03.35-.1.52-.07.17-.17.31-.29.44-.13.13-.27.23-.44.29-.17.07-.34.1-.52.1s-.35-.03-.52-.1c-.17-.07-.31-.17-.44-.29-.13-.13-.23-.27-.29-.44-.07-.17-.1-.34-.1-.52s.03-.35.1-.52c.07-.17.17-.31.29-.44.13-.13.27-.23.44-.29s.34-.1.52-.1.35.03.52.1c.17.07.31.17.44.29.13.13.23.27.29.44.07.17.1.34.1.52Z"/>
    <path class="cls-2" d="M68.96,43.9c.51-.89,1.72-1.39,2.7-1.63l-.42,3.39-2.02-.33-.25-1.44ZM73.42,40.5c-.19-.2-.46-.31-.74-.29-.12,0-2.44.19-4.12,1.42l-.42-2.38c-.05-.3-.25-.56-.53-.68-.28-.13-.6-.11-.86.05-5.82,3.45-7.45,6.46-9.1,12.33l-.06.22c-.29,1.04-.4,1.43-.67,2.73-.1.5.22,1,.73,1.1.5.1,1-.22,1.1-.73.25-1.23.35-1.58.64-2.6l.06-.22c1.48-5.26,2.8-7.73,7.1-10.52l.95,5.38c.07.39.38.69.77.76l3.38.55s.01,0,.02,0c.66.09,1.22.55,1.45,1.18.06.18.13.37.19.57.36,1.12.84,2.61,2.37,3.66l-.27,1.16c-.44,1.73-1.56,2.72-3.45,3.03-1.47.24-2.85-.05-2.97-.08l-2.65-.72c-.5-.14-1.01.16-1.14.65-.14.5.16,1.01.65,1.14l1.78.48c-.16.77-.32,1.95-.2,3.26.2,2.17,1.19,5.15,4.85,7.02.14.07.28.1.42.1.34,0,.67-.19.83-.51.23-.46.05-1.02-.41-1.25-4.42-2.26-4.05-6.5-3.68-8.22.69.08,1.69.14,2.76-.03,2.66-.41,4.4-1.95,5.02-4.44,0,0,0,0,0-.01l.42-1.83c.1-.42-.1-.85-.48-1.04-1.35-.7-1.72-1.85-2.08-2.96-.07-.21-.14-.43-.21-.64-.33-.9-.98-1.62-1.8-2.04l.61-4.87c.04-.28-.06-.55-.25-.76Z"/>
    <path class="cls-2" d="M70.95,50.7c.14-.72-.33-1.41-1.04-1.55-.72-.14-1.41.33-1.55,1.04-.14.72.33,1.41,1.04,1.55.72.14,1.41-.33,1.55-1.04Z"/>
    <path class="cls-2" d="M77.99,60.3c-.52,0-.93.42-.93.93v14.31h-18.8c-.52,0-.93.42-.93.93s.42.93.93.93h19.73c.51,0,.93-.42.93-.93v-15.25c0-.51-.42-.93-.93-.93Z"/>
    <path class="cls-2" d="M78.43,30.22l-24.54-13.12c-.27-.15-.6-.15-.88,0l-24.54,13.12c-.3.16-.49.48-.49.82v3.07c0,.51.42.93.93.93s.93-.42.93-.93v-2.51l23.6-12.62,23.6,12.62v14.3c0,.51.42.93.93.93s.93-.42.93-.93v-14.86c0-.34-.19-.66-.49-.82Z"/>
    <path class="cls-2" d="M26.77,52.82c-.1.31-.26.41-.56.38-.47-.06-.98-.48-1-.84,0-.02-.09-1.94,2.1-3.21.28.26.6.49.95.68-.43.65-1.06,1.71-1.48,2.99ZM30.04,50.51c.24.06.48.11.74.15.03,0,.05,0,.08,0l4.31.32,1.69,19.13c.04.48.45.85.93.85.03,0,.06,0,.08,0,.51-.05.89-.5.85-1.01l-1.66-18.82,2.51.19s.05,0,.07,0c.48,0,.89-.37.93-.86.04-.51-.35-.96-.86-1l-8.66-.64c-2.06-.35-3.07-1.2-3.6-3.02l-1.13-5.86,7.47-1.03c.3-.04.57-.23.7-.5l1.81-3.57c.43-.85,1.29-1.37,2.24-1.37h9.85c1.68.07,3.22,1.04,4.02,2.53l3.14,6.8c.22.47.77.67,1.24.46.47-.22.67-.77.46-1.24l-3.15-6.83s-.01-.03-.02-.05c-1.11-2.09-3.26-3.44-5.62-3.54-.01,0-.03,0-.04,0h-9.87c-1.66,0-3.15.92-3.9,2.39l-1.59,3.13-7.96,1.1c-.25.03-.48.17-.63.38-.15.21-.21.47-.16.72l1.32,6.86s.01.05.02.08c.14.51.32.97.54,1.39-2.35,1.46-2.9,3.66-2.83,4.83.07,1.11,1.07,2.37,2.62,2.57.12.02.24.02.35.02,1.04,0,1.87-.61,2.22-1.67.45-1.37,1.2-2.47,1.51-2.89Z"/>
    <path class="cls-2" d="M63.15,64.15c0-1.34-.52-2.59-1.47-3.54-1.95-1.95-5.13-1.95-7.08,0l-1.15,1.15-1.09-1.09c-.95-.95-2.27-1.5-3.62-1.5-.02,0-.03,0-.05,0-1.35.01-2.61.55-3.53,1.51-1.86,1.93-1.85,5.04.02,6.96l4.56,6.01c.31.41.9.49,1.31.18.41-.31.49-.9.18-1.31l-4.59-6.05s-.05-.07-.08-.1c-1.2-1.2-1.22-3.17-.04-4.4.57-.6,1.36-.93,2.21-.94.88,0,1.72.34,2.34.95l1.75,1.75c.36.36.95.36,1.32,0l1.81-1.81c1.22-1.22,3.22-1.22,4.44,0,.59.59.92,1.38.92,2.22s-.33,1.63-.92,2.22c-.03.02-.05.05-.07.08l-6.35,7.98c-.66.71-1.59,1.12-2.55,1.12h-21.54v-17.51c0-.51-.42-.93-.93-.93s-.93.42-.93.93v18.44c0,.51.42.93.93.93h22.47c1.5,0,2.94-.64,3.95-1.75.01-.02.03-.03.04-.05l6.34-7.97c.92-.94,1.43-2.18,1.43-3.5Z"/>
  </g>
</svg>