<?xml version="1.0" encoding="UTF-8"?>
<svg id="Capa_1" data-name="Capa 1" xmlns="http://www.w3.org/2000/svg" xmlns:xlink="http://www.w3.org/1999/xlink" viewBox="0 0 101.99 94.46">
  <defs>
    <style>
      .cls-1 {
        fill: none;
      }

      .cls-2 {
        fill: #100f0d;
      }

      .cls-3 {
        clip-path: url(#clippath);
      }
    </style>
    <clipPath id="clippath">
      <rect class="cls-1" x="13.12" y="9.35" width="75.75" height="75.75"/>
    </clipPath>
  </defs>
  <g class="cls-3">
    <path class="cls-2" d="M14.69,9.61c-.86,0-1.57.7-1.57,1.57v3.43c0,.86.7,1.57,1.57,1.57h1.68v30.9c0,.46.37.84.84.84h1.74c-.14,6.58,3.43,12.68,9.24,15.77,6.29,4.53,8.77,12.7,6.05,19.95-.16.44.06.92.49,1.08.09.03.19.05.29.05h40.53c.46,0,.84-.38.83-.84,0-.17-.05-.33-.14-.47-2.41-3.51-3.7-7.67-3.7-11.94v-6.32c7.92-1.94,13.49-9.04,13.49-17.2v-.15c1.7-.35,2.79-2.02,2.45-3.71-.31-1.47-1.59-2.51-3.08-2.52h-44.12c-.46,0-.84.37-.84.84v4.11h-3.55v-30.39h1.68c.86,0,1.57-.7,1.57-1.57v-3.43c0-.86-.7-1.57-1.57-1.57H14.69M14.67,10.96s.01,0,.02,0h23.87c.13,0,.23.09.23.22v3.43c0,.12-.1.22-.23.22H14.69c-.12,0-.23-.1-.23-.22v-3.43c0-.11.09-.21.21-.22ZM17.71,16.17h17.83v30.39h-17.83v-30.39ZM41.77,42.96h43.62c1,0,1.8.8,1.8,1.8s-.8,1.8-1.8,1.8h-43.62v-3.6ZM20.29,47.9h19.14c-.04,8.19,5.54,15.34,13.49,17.29v6.32c0,4.25-1.28,8.39-3.68,11.9h-13.52c2.55-7.71-.22-16.17-6.84-20.89-5.42-2.85-8.74-8.51-8.6-14.63ZM40.77,47.9h43.9v.09c0,9.04-7.32,16.36-16.36,16.36h-11.19c-9.03,0-16.36-7.32-16.35-16.36v-.09ZM54.26,65.46c.94.16,1.91.24,2.87.24h11.18c.96,0,1.93-.08,2.88-.24v6.05c0,4.21,1.18,8.33,3.41,11.9h-23.76c2.24-3.57,3.42-7.69,3.42-11.9v-6.05Z"/>
  </g>
</svg>