<?xml version="1.0" encoding="UTF-8"?>
<svg id="Capa_1" data-name="Capa 1" xmlns="http://www.w3.org/2000/svg" xmlns:xlink="http://www.w3.org/1999/xlink" viewBox="0 0 101.99 94.46">
  <defs>
    <style>
      .cls-1 {
        fill: none;
      }

      .cls-2 {
        fill: #1c1c1c;
      }

      .cls-3 {
        clip-path: url(#clippath);
      }
    </style>
    <clipPath id="clippath">
      <rect class="cls-1" x="13.12" y="11.02" width="74.25" height="68.25"/>
    </clipPath>
  </defs>
  <g class="cls-3">
    <path class="cls-2" d="M84.67,33.53c-.54,1-1.91,1.38-2.85.85l-2.94-1.61s-.02-.02-.03-.03l-28.5-15.57c-.1-.05-.21-.08-.32-.08s-.22.03-.32.08l-28.47,15.57h0l-2.97,1.64c-1.01.54-2.29.16-2.85-.85-.55-1.02-.18-2.31.82-2.87L49.02,12.75c.64-.34,1.4-.34,2.04,0l32.76,17.9c1.04.58,1.42,1.84.86,2.87h0ZM77.85,78.28H22.22v-44.55l27.8-15.21,27.83,15.2v44.56h0ZM84.46,29.48L51.69,11.57c-1.03-.55-2.27-.55-3.31,0L15.58,29.48c-1.63.93-2.24,3.02-1.34,4.68.92,1.66,3.01,2.28,4.67,1.38l1.98-1.09v44.48c0,.37.3.67.67.67h56.97c.37,0,.67-.3.67-.67v-44.49l1.98,1.09c.5.28,1.05.43,1.65.43,1.27,0,2.43-.69,3.03-1.81.91-1.69.3-3.75-1.39-4.68h0Z"/>
    <path class="cls-2" d="M39.7,41.93v4.3c-1.84.08-3.32,1.6-3.32,3.47v14.17c0,.37.3.67.67.67h5.62s.02,0,.03,0h14.68s.02,0,.03,0h4.91l1.93,1.93c-3.72,3.49-8.71,5.65-14.21,5.65-11.47,0-20.8-9.33-20.8-20.8,0-5.49,2.16-10.48,5.65-14.21l4.82,4.82h0ZM58.07,58.41v-8.7c0-.36.12-.69.28-1,.07-.13.12-.26.22-.38.31-.37.75-.64,1.26-.74,0,0,0,0,0,0,.66-.12,1.41.1,1.9.6.41.4.63.93.63,1.51v12.99l-4.29-4.29h0ZM58.07,60.3l2.9,2.9h-1.76s-.02,0-.03,0h-1.12v-2.9h0ZM50.86,51.2l-9.82-9.82v-1.81c0-.06.06-.13.13-.13h17.74c.06,0,.13.07.13.13v6.86s-.02,0-.03.01c-.05.02-.1.05-.15.07-.13.05-.25.11-.37.18-.06.04-.12.08-.18.12-.1.06-.19.13-.28.2-.06.05-.11.1-.17.15-.08.08-.16.16-.24.24-.05.06-.1.12-.15.18-.07.09-.13.18-.19.27-.04.07-.08.13-.12.2-.05.1-.1.21-.15.31-.03.07-.06.14-.08.2-.04.12-.07.24-.1.37-.01.06-.03.12-.04.18-.03.19-.05.39-.05.58v1.49h-5.87,0ZM55.57,55.91l-3.38-3.38h4.54v3.38h-1.16ZM43.34,57.25h11.68l1.71,1.71v4.23h-13.39v-5.95h0ZM50.31,52.54l3.38,3.38h-10.34v-3.38h6.96ZM42,49.71v13.5h-4.29v-13.5c0-1.32,1.24-2.34,2.54-2.11.42.07.8.28,1.12.6.41.4.63.93.63,1.51h0ZM41.78,46.82c-.05-.03-.1-.07-.15-.1-.17-.1-.34-.19-.53-.26-.02,0-.04-.02-.06-.03v-3.16l7.93,7.93h-5.63v-1.49c0-.94-.36-1.81-1.02-2.46-.16-.16-.35-.3-.53-.43h0ZM50.04,30.52c11.47,0,20.8,9.33,20.8,20.8,0,5.49-2.16,10.48-5.65,14.21l-1.52-1.52s.03-.09.03-.14v-14.17c0-.94-.37-1.81-1.02-2.46-.6-.61-1.46-.96-2.3-1.01v-6.67c0-.81-.66-1.47-1.47-1.47h-17.74c-.81,0-1.47.66-1.47,1.47v.47l-3.87-3.87c3.72-3.49,8.71-5.65,14.21-5.65h0ZM34.39,35.67s-.01.02-.02.03c-3.99,4.01-6.46,9.53-6.46,15.62,0,12.21,9.93,22.14,22.14,22.14,6.08,0,11.6-2.47,15.61-6.45.01-.01.03-.02.05-.03.01-.01.02-.03.03-.05,3.99-4.01,6.46-9.52,6.46-15.61,0-12.21-9.93-22.14-22.14-22.14-6.09,0-11.61,2.47-15.62,6.46-.01,0-.02.01-.03.02h0Z"/>
    <path class="cls-2" d="M75.99,61.9c.37,0,.67-.3.67-.67v-16.43c0-.37-.3-.67-.67-.67s-.67.3-.67.67v16.43c0,.37.3.67.67.67Z"/>
    <path class="cls-2" d="M75.99,69.28c.37,0,.67-.3.67-.67v-3.11c0-.37-.3-.67-.67-.67s-.67.3-.67.67v3.11c0,.37.3.67.67.67Z"/>
  </g>
</svg>