<?xml version="1.0" encoding="UTF-8"?>
<svg id="Capa_1" data-name="Capa 1" xmlns="http://www.w3.org/2000/svg" xmlns:xlink="http://www.w3.org/1999/xlink" viewBox="0 0 101.99 94.46">
  <defs>
    <style>
      .cls-1 {
        fill: none;
      }

      .cls-2 {
        isolation: isolate;
      }

      .cls-3 {
        clip-path: url(#clippath-1);
      }

      .cls-4 {
        clip-path: url(#clippath-2);
      }

      .cls-5 {
        clip-path: url(#clippath);
      }
    </style>
    <clipPath id="clippath">
      <rect class="cls-1" x="5.27" y="23.05" width="91.44" height="53.04"/>
    </clipPath>
    <clipPath id="clippath-1">
      <rect class="cls-1" x="63.75" y="38.18" width="32.81" height="37.09"/>
    </clipPath>
    <clipPath id="clippath-2">
      <rect class="cls-1" x="5.29" y="23.22" width="64.9" height="52.78"/>
    </clipPath>
  </defs>
  <g class="cls-2">
    <g class="cls-5">
      <g class="cls-3">
        <path d="M93.81,56.31l-18.43-14.98c-.13-.1-.29-.16-.44-.16s-.31.05-.44.16l-18.43,14.98-1.1-1.1,19.98-15.94,19.98,15.94-1.1,1.1ZM91.76,56.55v17.47h-10.51v-11.18c0-.39-.31-.7-.7-.7h-11.21c-.39,0-.7.31-.7.7v11.18h-10.51v-17.47s-.02-.06-.02-.1l16.84-13.67,16.84,13.68s-.02.06-.02.09ZM70.02,74.03v-10.49h9.81v10.49h-9.81ZM86.85,46.76v-5.59h2.81v8.05l-2.84-2.27c.02-.06.03-.12.03-.19ZM96.4,54.61l-5.36-4.27s.02-.04.02-.07v-9.78c0-.39-.31-.7-.7-.7h-4.21c-.39,0-.7.31-.7.7v5.4l-10.07-8.04c-.25-.21-.62-.21-.88,0l-21.02,16.77c-.16.12-.25.31-.26.51,0,.2.06.39.2.53l2.1,2.1c.25.25.66.28.94.05l.26-.21v17.14c0,.39.31.7.7.7h35.03c.39,0,.7-.31.7-.7v-17.15l.26.21c.13.1.29.16.44.16.18,0,.36-.07.5-.21l2.1-2.1c.14-.14.22-.34.2-.53,0-.19-.1-.38-.26-.5Z"/>
      </g>
      <g class="cls-4">
        <path d="M60.26,73.85h-1.08c-.29,0-.56-.05-.82-.16-.26-.11-.5-.26-.7-.46-.2-.2-.36-.43-.47-.69s-.17-.53-.17-.82c0-.28.05-.56.16-.82s.26-.5.46-.7c.2-.2.43-.36.69-.47.26-.11.54-.17.82-.17l.15.02c.39.03.7-.11.94-.42.24-.31.29-.65.16-1.01-.09-.23-.14-.48-.14-.73,0-.28.05-.56.16-.82.11-.26.26-.5.46-.7.2-.2.43-.36.69-.47s.54-.17.82-.17c.28,0,.56.05.82.15.26.11.5.26.7.46s.36.43.47.69.17.53.17.82c0,.03,0,.07,0,.1,0,.27.09.5.26.7.18.2.4.32.66.36.34.05.65.15.95.32s.55.38.76.64.37.56.47.88c.1.32.14.65.12.99-.02.34-.11.66-.26.96s-.34.57-.59.8c-.25.23-.53.41-.85.53-.32.12-.64.18-.98.18h-4.84ZM22.64,73.85v-17.13h8.6v17.13h-8.6ZM15.11,73.85h-5.38c-.29,0-.56-.05-.82-.16-.26-.11-.5-.26-.7-.46-.2-.2-.36-.43-.47-.69-.11-.26-.17-.53-.17-.82,0-.28.05-.56.16-.82s.26-.5.46-.7c.2-.2.43-.36.69-.47.26-.11.54-.17.82-.17l.15.02c.39.03.7-.11.94-.42.24-.31.29-.65.16-1.01-.09-.23-.14-.48-.14-.73,0-.28.05-.56.16-.82s.26-.5.46-.7c.2-.2.43-.36.69-.47.26-.11.54-.17.82-.17.29,0,.56.05.82.15.26.11.5.26.7.46s.36.43.47.69c.11.26.17.53.17.82,0,.03,0,.07,0,.1,0,.27.09.5.26.7.18.2.4.32.66.36.34.05.65.15.95.32.3.17.55.38.76.64s.37.56.47.88c.1.32.14.65.12.99-.02.34-.11.66-.26.96s-.34.57-.59.8c-.25.23-.53.41-.85.53-.32.12-.64.18-.98.18h-.54ZM16.19,49.52l21.5-17.3,21.5,17.3v15.11c-.71.8-1.07,1.73-1.08,2.8v.13c-.46.12-.89.31-1.29.57s-.74.58-1.03.95c-.29.38-.52.79-.67,1.24-.15.45-.23.91-.23,1.39,0,.77.2,1.48.6,2.14h-22.1v-18.2c0-.14-.03-.28-.08-.41s-.13-.25-.23-.35c-.1-.1-.22-.18-.35-.23s-.27-.08-.41-.08h-10.75c-.14,0-.28.03-.41.08s-.25.13-.35.23c-.1.1-.18.22-.23.35-.05.13-.08.27-.08.41v18.2h-.82c.21-.31.38-.63.51-.98.13-.35.22-.7.27-1.07s.05-.73.02-1.1c-.04-.37-.12-.73-.24-1.08-.12-.35-.28-.68-.48-1s-.43-.6-.69-.86c-.26-.26-.55-.49-.87-.68-.32-.19-.65-.35-1-.46-.15-.76-.48-1.43-1-2.02v-15.09ZM11.78,49.77c-.21-.01-.42-.07-.61-.16-.19-.09-.36-.22-.5-.38s-.25-.34-.31-.54c-.07-.2-.1-.41-.08-.62.03-.43.2-.78.52-1.07l25.84-20.91c.3-.26.65-.39,1.05-.39.42,0,.79.14,1.1.42l25.77,20.85c.16.14.29.31.38.5.09.19.15.39.16.6.01.21-.01.42-.08.62-.07.2-.17.38-.31.54-.14.16-.31.29-.51.39s-.4.15-.62.16-.43-.02-.63-.09-.39-.18-.55-.33l-24.71-19.88-24.74,19.9c-.33.3-.72.43-1.17.4ZM54.89,28.89h4.3v10.97l-4.3-3.48v-7.49ZM66.64,66.63c-.09-.49-.27-.95-.52-1.38-.26-.43-.58-.8-.96-1.12s-.81-.56-1.28-.73c-.47-.17-.96-.25-1.46-.25-.36,0-.72.06-1.08.15v-12.08c.39.28.83.47,1.3.58s.94.13,1.42.06.92-.23,1.34-.47c.42-.24.77-.55,1.07-.93.3-.38.51-.8.64-1.26s.18-.93.13-1.41-.18-.93-.41-1.35-.52-.79-.88-1.11l-4.6-3.72v-13.78c0-.14-.03-.28-.08-.41s-.13-.25-.23-.35c-.1-.1-.22-.18-.35-.23-.13-.05-.27-.08-.41-.08h-6.45c-.14,0-.28.03-.41.08-.13.05-.25.13-.35.23-.1.1-.18.22-.23.35s-.08.27-.08.41v6.82l-12.57-10.17c-.34-.3-.72-.52-1.15-.68-.42-.16-.86-.24-1.31-.24s-.89.07-1.32.23-.81.38-1.15.67l-25.83,20.9c-.28.24-.52.52-.72.84-.2.31-.34.65-.44,1.01-.1.36-.14.72-.13,1.09.01.37.08.73.2,1.08s.29.68.5.98.47.57.77.79.62.4.96.54c.35.13.71.21,1.08.23.09,0,.17,0,.26,0,.79,0,1.5-.23,2.14-.69v12.08c-.32-.09-.64-.14-.97-.15-.33-.01-.66.01-.98.08s-.63.16-.93.3-.58.3-.84.5-.49.43-.7.68c-.21.25-.38.53-.53.82-.14.3-.25.6-.32.92-.07.32-.11.64-.1.97v.13c-.46.12-.89.31-1.29.57s-.74.58-1.03.95c-.29.38-.52.79-.67,1.24-.15.45-.23.91-.23,1.39,0,.8.22,1.55.65,2.23-.23.1-.41.26-.52.49-.12.23-.15.46-.1.71.05.25.18.45.37.61s.42.24.68.24h62.36c.14,0,.28-.03.41-.08s.25-.13.35-.23.18-.22.23-.35.08-.27.08-.41c0-.25-.08-.47-.24-.66s-.36-.31-.61-.36c.21-.31.39-.63.52-.98s.23-.7.28-1.07.06-.74.03-1.11c-.03-.37-.11-.73-.23-1.09-.12-.35-.28-.69-.47-1s-.43-.61-.69-.87c-.26-.26-.56-.49-.87-.69-.32-.2-.65-.35-1.01-.47Z"/>
        <path d="M39.84,56.73h5.38v8.56h-5.38v-8.56ZM52.74,65.29h-5.38v-8.56h5.38v8.56ZM38.76,67.43h15.05c.14,0,.28-.03.41-.08s.25-.13.35-.23c.1-.1.18-.22.23-.35.05-.13.08-.27.08-.41v-10.71c0-.14-.03-.28-.08-.41s-.13-.25-.23-.35c-.1-.1-.22-.18-.35-.23s-.27-.08-.41-.08h-15.05c-.14,0-.28.03-.41.08s-.25.13-.35.23c-.1.1-.18.22-.23.35-.05.13-.08.27-.08.41v10.71c0,.14.03.28.08.41.05.13.13.25.23.35.1.1.22.18.35.23s.27.08.41.08Z"/>
      </g>
    </g>
  </g>
</svg>