<?xml version="1.0" encoding="UTF-8"?>
<svg id="Capa_1" data-name="Capa 1" xmlns="http://www.w3.org/2000/svg" xmlns:xlink="http://www.w3.org/1999/xlink" viewBox="0 0 101.99 94.46">
  <defs>
    <style>
      .cls-1 {
        fill: none;
      }

      .cls-2 {
        clip-path: url(#clippath);
      }
    </style>
    <clipPath id="clippath">
      <rect class="cls-1" x="13.12" y="16.95" width="75.75" height="65.25"/>
    </clipPath>
  </defs>
  <g class="cls-2">
    <path d="M88.2,82.18h-18.61c-.37,0-.66-.3-.66-.67v-21.3c0-.37.3-.67.66-.67h18.61c.37,0,.66.3.66.67v21.3c0,.37-.3.67-.66.67M70.26,80.85h17.28v-19.97h-17.28v19.97Z"/>
    <path d="M88.2,71.54h-18.61c-.37,0-.66-.3-.66-.67s.3-.67.66-.67h18.61c.37,0,.66.3.66.67s-.3.67-.66.67"/>
    <path d="M81.56,66.21h-5.32c-.37,0-.66-.3-.66-.67s.3-.67.66-.67h5.32c.37,0,.66.3.66.67s-.3.67-.66.67"/>
    <path d="M81.56,76.86h-5.32c-.37,0-.66-.3-.66-.67s.3-.67.66-.67h5.32c.37,0,.66.3.66.67s-.3.67-.66.67"/>
    <path d="M84.22,60.89c-.37,0-.66-.3-.66-.67v-4.66h-7.97v4.66c0,.37-.3.67-.66.67s-.66-.3-.66-.67v-5.32c0-.37.3-.67.66-.67h9.3c.37,0,.66.3.66.67v5.32c0,.37-.3.67-.66.67"/>
    <path d="M78.9,55.56c-.37,0-.66-.3-.66-.67v-9.32c0-.37.3-.67.66-.67s.66.3.66.67v9.32c0,.37-.3.67-.66.67"/>
    <path d="M86.88,46.25h-15.95c-.22,0-.42-.11-.55-.29-.12-.18-.16-.41-.08-.61l3.99-10.65c.1-.26.35-.43.62-.43h7.97c.28,0,.52.17.62.43l3.99,10.65c.08.2.05.43-.08.61-.12.18-.33.29-.55.29M71.89,44.92h14.03l-3.49-9.32h-7.05l-3.49,9.32Z"/>
    <path d="M64.28,76.86H13.78c-.37,0-.66-.3-.66-.67v-5.32c0-.37.3-.67.66-.67h50.5c.37,0,.66.3.66.67v5.32c0,.37-.3.67-.66.67M14.45,75.53h49.17v-3.99H14.45v3.99Z"/>
    <path d="M60.3,82.18h-5.32c-.37,0-.66-.3-.66-.67v-5.32c0-.37.3-.67.66-.67s.66.3.66.67v4.66h3.99v-4.66c0-.37.3-.67.66-.67s.66.3.66.67v5.32c0,.37-.3.67-.66.67"/>
    <path d="M23.09,82.18h-5.32c-.37,0-.66-.3-.66-.67v-5.32c0-.37.3-.67.66-.67s.66.3.66.67v4.66h3.99v-4.66c0-.37.3-.67.66-.67s.66.3.66.67v5.32c0,.37-.3.67-.66.67"/>
    <path d="M62.95,71.54c-.37,0-.66-.3-.66-.67v-2.66c0-1.1-.89-2-1.99-2H17.77c-1.1,0-1.99.89-1.99,2v2.66c0,.37-.3.67-.66.67s-.66-.3-.66-.67v-2.66c0-1.84,1.49-3.33,3.32-3.33h42.53c1.83,0,3.32,1.49,3.32,3.33v2.66c0,.37-.3.67-.66.67"/>
    <path d="M60.3,66.21c-.37,0-.66-.3-.66-.67,0-2.57-2.09-4.66-4.65-4.66h-31.89c-2.56,0-4.65,2.09-4.65,4.66,0,.37-.3.67-.66.67s-.66-.3-.66-.67v-18.63c0-.37.3-.67.66-.67h42.53c.37,0,.66.3.66.67v18.63c0,.37-.3.67-.66.67M23.09,59.56h31.89c1.87,0,3.56.87,4.65,2.23v-14.21H18.44v14.21c1.1-1.36,2.77-2.23,4.65-2.23Z"/>
    <path d="M53.65,60.89c-.37,0-.66-.3-.66-.67v-2.66c0-1.1-.89-2-1.99-2h-5.32c-1.1,0-1.99.89-1.99,2v2.66c0,.37-.3.67-.66.67s-.66-.3-.66-.67v-2.66c0-1.84,1.49-3.33,3.32-3.33h5.32c1.83,0,3.32,1.49,3.32,3.33v2.66c0,.37-.3.67-.66.67"/>
    <path d="M35.05,60.89c-.37,0-.66-.3-.66-.67v-2.66c0-1.1-.89-2-1.99-2h-5.32c-1.1,0-1.99.89-1.99,2v2.66c0,.37-.3.67-.66.67s-.66-.3-.66-.67v-2.66c0-1.84,1.49-3.33,3.32-3.33h5.32c1.83,0,3.32,1.49,3.32,3.33v2.66c0,.37-.3.67-.66.67"/>
    <path d="M60.3,38.26H17.77c-.37,0-.66-.3-.66-.67v-19.97c0-.37.3-.67.66-.67h42.53c.37,0,.66.3.66.67v19.97c0,.37-.3.67-.66.67M18.44,36.93h41.2v-18.63H18.44v18.63Z"/>
    <path d="M24.42,27.61c-2.91,0-5.6-1.45-7.2-3.88-.2-.31-.12-.72.19-.92.3-.2.72-.12.92.19,1.35,2.05,3.63,3.28,6.09,3.28,4.03,0,7.31-3.29,7.31-7.32,0-.42-.04-.83-.11-1.21-.07-.36.17-.71.53-.78.36-.06.71.17.78.53.09.46.13.95.13,1.46,0,4.77-3.87,8.65-8.64,8.65"/>
    <path d="M48.34,38.26c-.17,0-.34-.06-.47-.2l-8.84-8.84-8.84,8.84c-.26.26-.67.26-.93,0-.26-.26-.26-.68,0-.94l9.3-9.32c.26-.26.67-.26.93,0l9.3,9.32c.26.26.26.68,0,.94-.12.14-.3.2-.47.2"/>
    <path d="M60.3,32.94c-.17,0-.34-.06-.47-.2l-8.84-8.84-7.51,7.51c-.26.26-.67.26-.93,0-.26-.26-.26-.68,0-.94l7.97-7.99c.26-.26.67-.26.93,0l9.3,9.32c.26.26.26.68,0,.94-.12.14-.3.2-.47.2"/>
  </g>
</svg>