<?xml version="1.0" encoding="UTF-8"?>
<svg id="Capa_1" data-name="Capa 1" xmlns="http://www.w3.org/2000/svg" xmlns:xlink="http://www.w3.org/1999/xlink" viewBox="0 0 101.99 94.46">
  <defs>
    <style>
      .cls-1 {
        fill: none;
      }

      .cls-2 {
        clip-path: url(#clippath);
      }
    </style>
    <clipPath id="clippath">
      <rect class="cls-1" x="23.24" y="16.95" width="55.5" height="65.25"/>
    </clipPath>
  </defs>
  <g class="cls-2">
    <path d="M27.23,21.55c-.31-.32-.31-.83,0-1.15.31-.32.83-.32,1.14,0l1.17,1.18c.31.32.31.83,0,1.15-.16.16-.36.24-.57.24s-.41-.08-.57-.24l-1.17-1.18ZM24.84,26.23c0-.45.36-.81.81-.81h1.65c.45,0,.81.36.81.81s-.36.81-.81.81h-1.65c-.45,0-.81-.36-.81-.81ZM29.54,29.73c.31.32.31.83,0,1.15l-1.17,1.18c-.16.16-.36.24-.57.24s-.41-.08-.57-.24c-.31-.32-.31-.83,0-1.15l1.17-1.18c.31-.32.83-.32,1.14,0ZM33.02,31.18c.45,0,.81.36.81.81v1.66c0,.45-.36.81-.81.81s-.81-.36-.81-.81v-1.66c0-.45.36-.81.81-.81ZM37.64,29.73l1.17,1.18c.31.32.31.83,0,1.15-.16.16-.36.24-.57.24s-.41-.08-.57-.24l-1.17-1.18c-.31-.32-.31-.83,0-1.15.31-.32.83-.32,1.14,0ZM38.75,25.41h1.65c.45,0,.81.36.81.81s-.36.81-.81.81h-1.65c-.44,0-.81-.36-.81-.81s.36-.81.81-.81ZM36.5,22.73c-.31-.32-.31-.83,0-1.15l1.17-1.18c.31-.32.83-.32,1.14,0,.31.32.31.83,0,1.15l-1.17,1.18c-.16.16-.36.24-.57.24s-.41-.08-.57-.24ZM32.21,20.46v-1.66c0-.45.36-.81.81-.81s.81.36.81.81v1.66c0,.45-.36.81-.81.81s-.81-.36-.81-.81ZM33.02,24.09c1.17,0,2.13.96,2.13,2.14s-.95,2.14-2.13,2.14-2.13-.96-2.13-2.14.95-2.14,2.13-2.14ZM33.02,29.99c2.06,0,3.74-1.69,3.74-3.77s-1.68-3.77-3.74-3.77-3.74,1.69-3.74,3.77,1.68,3.77,3.74,3.77ZM62.28,66.89h6.19v4.79h-6.19v-4.79ZM61.47,73.31h7.81c.45,0,.81-.36.81-.81v-6.42c0-.45-.36-.81-.81-.81h-7.81c-.45,0-.81.36-.81.81v6.42c0,.45.36.81.81.81ZM49.95,66.89h6.19v4.79h-6.19v-4.79ZM49.14,73.31h7.81c.45,0,.81-.36.81-.81v-6.42c0-.45-.36-.81-.81-.81h-7.81c-.45,0-.81.36-.81.81v6.42c0,.45.36.81.81.81ZM62.28,57.11h6.19v4.79h-6.19v-4.79ZM61.47,63.53h7.81c.45,0,.81-.36.81-.81v-6.42c0-.45-.36-.81-.81-.81h-7.81c-.45,0-.81.36-.81.81v6.42c0,.45.36.81.81.81ZM49.95,57.11h6.19v4.79h-6.19v-4.79ZM49.14,63.53h7.81c.45,0,.81-.36.81-.81v-6.42c0-.45-.36-.81-.81-.81h-7.81c-.45,0-.81.36-.81.81v6.42c0,.45.36.81.81.81ZM73.48,76.06h-28.57v-19.2c0-.45-.36-.81-.81-.81h-10.14c-.44,0-.81.36-.81.81v19.2h-4.64v-24.47h44.96v24.47ZM43.3,76.06h-8.53v-18.38h8.53v18.38ZM77.13,80.57H24.86v-2.89h52.27v2.89h0ZM24.86,47.08h52.27v2.89H24.86v-2.89ZM48.98,44.35h4.7v1.1h-4.85l.15-1.1ZM50.42,41.75h3.26v.97h-4.48l.15-1.11c.34.09.7.14,1.07.14ZM69.62,44.35h4.7l.15,1.1h-4.85v-1.1ZM72.87,41.75c.37,0,.73-.05,1.07-.14l.15,1.11h-4.48v-.97h3.26ZM58.95,18.76c-1.32,1.25-2.36,2.79-3.03,4.53h-6.01c1.8-2.33,5.13-4,9.04-4.53ZM73.39,23.29h-6.01c-.67-1.74-1.7-3.28-3.03-4.53,3.9.53,7.24,2.19,9.04,4.53ZM61.65,18.71c1.75,1.09,3.12,2.68,3.98,4.58h-7.96c.86-1.9,2.24-3.49,3.98-4.58ZM77.94,51.59c.44,0,.81-.36.81-.81v-4.51c0-.45-.36-.81-.81-.81h-1.84l-.63-4.59c1.02-.79,1.68-2.03,1.68-3.42v-4.5c0-.45-.36-.81-.81-.81s-.81.36-.81.81v4.5c0,1.48-1.2,2.68-2.66,2.68h-4.07c-.45,0-.81.36-.81.81v4.51h-5.55v-8.37h8.12c.44,0,.81-.36.81-.81s-.36-.81-.81-.81h-8.12v-10.55h12.4c.28,0,.54-.15.69-.39.15-.24.16-.54.03-.79-2.04-4.05-7.64-6.78-13.93-6.78s-11.89,2.72-13.93,6.78c-.13.25-.11.55.03.79.15.24.41.39.69.39h12.4v10.55h-8.12c-.44,0-.81.36-.81.81s.36.81.81.81h8.12v8.37h-5.55v-4.51c0-.45-.36-.81-.81-.81h-4.07c-1.47,0-2.66-1.2-2.66-2.68v-4.5c0-.45-.36-.81-.81-.81s-.81.36-.81.81v4.5c0,1.39.66,2.64,1.68,3.42l-.63,4.59h-23.15c-.44,0-.81.36-.81.81v4.51c0,.45.36.81.81.81h2.85v24.47h-2.85c-.44,0-.81.36-.81.81v4.51c0,.45.36.81.81.81h53.88c.45,0,.81-.36.81-.81v-4.51c0-.45-.36-.81-.81-.81h-2.85v-24.47h2.85Z"/>
  </g>
</svg>