<?xml version="1.0" encoding="UTF-8"?>
<svg id="Capa_1" data-name="Capa 1" xmlns="http://www.w3.org/2000/svg" xmlns:xlink="http://www.w3.org/1999/xlink" viewBox="0 0 101.99 94.46">
  <defs>
    <style>
      .cls-1 {
        fill: none;
      }

      .cls-2 {
        clip-path: url(#clippath);
      }
    </style>
    <clipPath id="clippath">
      <rect class="cls-1" x="17.62" y="10.65" width="66.75" height="69"/>
    </clipPath>
  </defs>
  <g class="cls-2">
    <path d="M78,35.47c-2.99.91-6.6-.2-7.33-.45l-3.96-4.75c.3-.25.54-.47.72-.64,1.17.75,4.78,2.88,8.39,3.3,2.62.3,4.99-.15,6.49-.57-.88,1.08-2.36,2.52-4.31,3.12ZM61.8,39.09c-3.01.47-6.61.02-8.74-.35v-5.29c1.07.15,2.43.29,3.88.29,1.11,0,2.27-.08,3.38-.3,2.29-.45,4.2-1.55,5.51-2.51l3.73,4.48c-1.05.86-4.09,3.09-7.77,3.67ZM50.01,56.11v-22.84c.46-.08.8-.16.98-.2.18.04.52.11.98.2v22.84h-1.96ZM64.6,61.48h-27.22v-4.27h27.22v4.27ZM54.23,68.23h-2.7v-5.65h4.47l-1.78,5.65ZM60.06,78.55h-2.62l-5.49-9.23h2.38l5.73,9.23ZM51.97,78.55h-1.96v-7.05l.98-1.65.98,1.65v7.05h0ZM44.53,78.55h-2.62l5.73-9.23h2.38l-5.49,9.23ZM45.96,62.57h4.47v5.65h-2.7l-1.78-5.65ZM40.17,39.09c-3.67-.58-6.72-2.81-7.77-3.67l3.73-4.48c1.31.95,3.22,2.05,5.51,2.51,2.56.5,5.37.28,7.26,0v5.29c-2.13.37-5.72.82-8.74.35ZM23.98,35.47c-1.95-.6-3.43-2.04-4.31-3.12,1.5.42,3.87.88,6.49.57,3.61-.42,7.22-2.55,8.39-3.3.18.17.42.39.72.64l-3.96,4.75c-.73.25-4.34,1.36-7.33.45ZM44.24,16.68c1.16-.68,2.48-1.04,3.83-1.05l-13.79,12.87c-.38.26-4.4,2.9-8.25,3.34-2.68.31-5.14-.26-6.48-.67l24.69-14.49ZM50.01,12.72c0-.54.44-.98.98-.98s.98.44.98.98v1.81h-1.96v-1.81h0ZM41.86,32.37c-3.12-.62-5.54-2.6-6.45-3.44l14.26-13.31h.76v16.45c-1.27.26-5.23.96-8.58.3ZM60.11,32.37c-3.35.66-7.3-.04-8.58-.3V15.63h.76l14.26,13.31c-.91.84-3.33,2.83-6.45,3.44ZM82.43,31.17c-1.35.41-3.81.98-6.48.67-3.85-.44-7.86-3.09-8.25-3.34l-13.79-12.87c1.35,0,2.67.37,3.83,1.05l24.69,14.49ZM84,30.82l-25.71-15.09c-1.34-.79-2.87-1.2-4.43-1.2h-.8v-1.81c0-1.14-.93-2.07-2.08-2.07s-2.08.93-2.08,2.07v1.81h-.8c-1.56,0-3.09.42-4.43,1.2l-25.71,15.09c-.26.15-.35.48-.2.74.09.16,2.17,3.82,5.89,4.96,3.16.96,6.78-.06,7.86-.41.92.79,4.26,3.4,8.49,4.06,3.08.48,6.68.06,8.91-.32v16.26h-12.08c-.3,0-.55.25-.55.55v5.36c0,.3.25.55.55.55h7.99l1.93,6.13-6.27,10.11c-.1.17-.11.38-.01.55.1.17.28.28.48.28h3.92c.19,0,.37-.1.47-.27l3.59-6.03v5.75c0,.3.25.55.55.55h3.06c.3,0,.55-.25.55-.55v-5.75l3.59,6.03c.1.17.28.27.47.27h3.92c.2,0,.38-.11.48-.28.1-.17.09-.39-.01-.55l-6.27-10.11,1.93-6.13h7.99c.3,0,.55-.25.55-.55v-5.37c0-.3-.25-.55-.55-.55h-12.08v-16.26c1.51.25,3.66.53,5.85.53,1.03,0,2.07-.06,3.05-.22,4.23-.66,7.56-3.28,8.49-4.06,1.08.35,4.69,1.37,7.86.41,3.72-1.13,5.8-4.8,5.89-4.96.14-.26.06-.59-.2-.74ZM82.26,50.4l-4.06,17.75c-.2.89-.98,1.51-1.9,1.51h-11.81c-.54,0-1.04-.21-1.41-.6-.37-.39-.56-.9-.53-1.43.05-1.03.94-1.84,2.02-1.84h9.74c.26,0,.48-.18.54-.43l3.61-15.81c.12-.5.42-.93.86-1.21.44-.28.96-.36,1.47-.25,1.05.24,1.7,1.28,1.46,2.32ZM76.01,78.55l-2.07-7.8h2l3.12,7.8h-3.05ZM68.61,78.55h-3.31l1.12-7.8h2.19v7.8ZM81.04,47.01c-.79-.18-1.61-.04-2.3.39-.69.43-1.17,1.1-1.35,1.89l-3.52,15.39h-9.31c-1.67,0-3.03,1.27-3.11,2.88-.04.84.26,1.63.84,2.24.57.6,1.38.94,2.2.94h.81l-1.19,8.27c-.02.16.02.32.13.44.1.12.26.19.42.19h4.5c.3,0,.55-.25.55-.55v-8.35h3.09l2.26,8.49c.06.24.28.41.53.41h4.28c.18,0,.35-.09.46-.24.1-.15.12-.34.06-.51l-3.3-8.25c1.08-.28,1.94-1.13,2.2-2.26l4.06-17.75c.37-1.63-.66-3.26-2.29-3.63ZM36.68,78.55h-3.31v-7.8h2.19l1.12,7.8ZM25.96,78.55h-3.05l3.12-7.8h2l-2.07,7.8ZM23.77,68.14l-4.06-17.75c-.24-1.04.42-2.08,1.46-2.32.14-.03.29-.05.44-.05.36,0,.72.1,1.03.3.44.28.75.71.86,1.21l3.61,15.81c.06.25.28.43.54.43h9.74c1.08,0,1.96.81,2.02,1.84.03.54-.16,1.04-.53,1.43-.37.39-.87.6-1.41.6h-11.81c-.91,0-1.69-.62-1.9-1.51ZM39.68,69.8c.58-.61.88-1.4.84-2.24-.08-1.62-1.45-2.88-3.11-2.88h-9.31l-3.52-15.39c-.18-.79-.66-1.46-1.35-1.89-.69-.43-1.5-.57-2.3-.39-1.64.37-2.66,2-2.29,3.63l4.06,17.75c.26,1.13,1.12,1.98,2.2,2.26l-3.3,8.25c-.07.17-.05.36.06.51.1.15.27.24.46.24h4.28c.25,0,.47-.17.53-.41l2.26-8.49h3.09v8.35c0,.3.25.55.55.55h4.5c.16,0,.31-.07.42-.19.1-.12.15-.28.13-.44l-1.19-8.27h.81c.83,0,1.63-.34,2.21-.94Z"/>
  </g>
</svg>